<?xml version="1.0" encoding="UTF-8"?>
<svg xmlns="http://www.w3.org/2000/svg" viewBox="0 0 170 175">
  <defs>
    <style>
      .cls-1 {
        fill: #fc0;
      }

      .cls-2 {
        fill: #fff;
      }

      .cls-3 {
        fill: red;
      }
    </style>
  </defs>
  <g id="Hintergrund">
    <rect class="cls-2" width="170" height="175"/>
  </g>
  <g id="Ebene_4" data-name="Ebene 4">
    <g>
      <path d="M37.26,58.78c.03-.22.04-.45.04-.69,0-.13,0-.28-.02-.45,2-.03,3.74-1.46,3.74-3.12,0-.84-.55-1.47-.86-1.85.07-.02.14-.03.21-.05.29.25,1.12,1.15,1.12,2.29,0,1.98-1.98,3.82-4.24,3.86M35.25,51.88c-.04-.22-.12-.42-.25-.59,0-.2.09-.4.42-.24-.17.18-.04.5-.04.5,0,0,.36-.17.29-.41.54.13.15.84-.41.74M34.79,52.9c-.07-.3-.22-.6-.42-.83-.18-.21-.46-.45-.86-.45-.18,0-.48.08-.67.16-.07-.13-.21-.44-.21-.58s.25-.29.71-.29c1.03,0,1.65.46,1.65,1.25,0,.28-.11.53-.21.75M37.44,66.19c.12,0,.18.02.25.05.3.81,1.44,2.33,1.49,2.4h.01s.01,0,.01,0c.28-.04,1-.15,1.6-.15h.02c.06,0,.14,0,.18.05.04.04.06.11.06.2,0,.15-.06.41-.14.51-.21-.23-.55-.33-1.09-.33-.17,0-.36.05-.46.08h-.04s-.05.02-.05.02l.31.32c.49.48.91.9.91,1.18,0,.17-.16.39-.31.48-.04-.51-.55-1.2-1.06-1.58l-.04-.04v.18c-.01.12-.02.3-.02.5,0,.97-.1,1.12-.44,1.12-.05,0-.13-.02-.18-.04.19-.23.26-.54.26-1.09v-.25s0-.2,0-.2c0-.23.02-.39.04-.52v-.07s-.04,0-.04,0c-.16-.02-.45-.06-.68-.06-.48,0-.81.05-1.04.27-.16-.13-.32-.34-.32-.48,0-.2.13-.22.29-.22.08,0,.16.02.27.03.21.03.52.08,1.16.08h.04v-.04c-.18-.46-.62-1.14-1.34-2.01.06-.24.12-.39.35-.39M31.27,68.59l-.02.04h.04c.64,0,.95-.05,1.16-.08.11-.01.19-.03.27-.03.16,0,.29.02.29.22,0,.14-.16.35-.32.48-.23-.22-.56-.27-1.04-.27-.22,0-.52.04-.68.06h-.02s-.03,0-.03,0v.07c.03.13.05.3.05.52v.2s0,.25,0,.25c0,.54.07.85.27,1.09-.05.02-.13.04-.18.04-.34,0-.44-.15-.44-1.12,0-.2,0-.38-.02-.5v-.18s-.05.04-.05.04c-.5.38-1.02,1.07-1.05,1.58-.15-.1-.32-.32-.32-.48,0-.28.42-.7.91-1.18l.28-.28.04-.04-.09-.02c-.11-.03-.3-.08-.46-.08-.54,0-.88.1-1.09.33-.08-.11-.14-.37-.14-.51,0-.1.02-.16.06-.2.05-.05.12-.05.19-.05h.01c.6,0,1.32.11,1.6.15h.02s0,0,0,0c.05-.07,1.2-1.59,1.49-2.4.07-.03.12-.05.25-.05.23,0,.29.15.35.39-.71.87-1.16,1.55-1.32,2.01M28.18,54.92c0-1.14.83-2.04,1.12-2.29.07.02.14.03.21.05-.31.38-.86,1.01-.86,1.85,0,1.67,1.78,3.12,3.8,3.12-.01.14-.02.29-.02.45,0,.25.01.47.04.69-2.28-.01-4.29-1.86-4.29-3.86M43.48,58.43c1.02,1.62,1.82,1.59,3.04,1.59-1-.77-1.66-1.75-1.98-2.25l-1.87-2.99c-.18-.92-.66-1.79-1.38-2.43.24-.09.44-.19.56-.28-1.22,0-2.43-.62-3.1-.62-.43,0-.7.26-.7.59.03.38.42.76,1.13.76.16,0,.37-.02.6-.06.39.54.7,1.03.7,1.73,0,1.31-1.57,2.33-3.15,2.33-.09,0-.18,0-.26-.01-.15-.32-.62-.87-.62-1.49,0-1.04.68-1.89.68-2.92,0-.64-.31-1.04-.43-1.2.2-.18.41-.4.46-.55-.11.05-.25.05-.44.05-.76,0-1.38-.19-1.98-.19-.34,0-.43.11-.43.21,0,.04,0,.07.02.09-.13-.05-.25-.08-.4-.11-.17-.04-.37-.05-.57-.05-.73,0-.99.3-.99.57,0,.22.18.63.38.94.29-.14.62-.24.78-.24.39,0,.73.37.92.81-.26.03-.31.04-.57.04-.71,0-1.2-.25-1.3-.25-.01,0-.03,0-.03.02,0,.1.2.36.6.51.52.2,1.31.27,1.44.3,0,.02-.13.27-.28.32-.03.01-.05.01-.09,0-.55-.11-.7-.15-1.39-.42-.02,0-.03,0-.03.03,0,.27.71.88,1.35,1.11-.53.68-1.2,1.38-1.51,2.44-.09,0-.18.01-.27.01-1.58,0-3.15-1.02-3.15-2.33,0-.7.31-1.19.7-1.73.23.04.43.06.6.06.71,0,1.11-.38,1.13-.76,0-.34-.27-.59-.7-.59-.67,0-1.88.62-3.1.62.12.09.32.19.56.28-.71.64-1.19,1.51-1.38,2.43l-1.87,2.99c-.32.5-.98,1.49-1.98,2.25,1.21,0,2.01.03,3.04-1.59l.96-1.53c.07.2.16.39.26.58l-1.91,3.05c-.32.51-.98,1.48-1.98,2.25,1.21,0,2.01.03,3.04-1.59l1.64-2.62c.12.13.25.26.39.38l-2.32,3.71c-.32.51-.97,1.48-1.98,2.25,1.21,0,2.01.03,3.03-1.59l2.26-3.61c.15.09.3.18.46.27l-2.76,4.41c-.32.5-.97,1.47-1.98,2.25,1.21,0,2.01.03,3.04-1.59l2.84-4.54c.17.06.34.13.51.18l-3.21,5.13c-.31.5-.98,1.49-1.98,2.25,1.21,0,2.01.03,3.03-1.59l3.42-5.47s.07,0,.11.02c.09.3.16.58.16.85,0,1.72-1.12,3.24-2.48,4.41.09.04.24.05.38.05.28,0,.46-.02.59-.04-.32.71-.99,1.64-1.33,2.11-.44-.08-1.09-.14-1.51-.14s-.49.26-.49.49c0,.4.19.72.41.9.08-.2.25-.48,1.06-.48.02,0,.05,0,.08,0-.24.27-.98.87-.98,1.36,0,.32.35.8.82.8-.03-.11-.03-.2-.03-.27,0-.39.35-.85.64-1.17,0,.1,0,.09,0,.2,0,.93.09,1.36.68,1.36.29,0,.49-.16.56-.21-.38-.35-.4-.63-.4-1.15,0-.14,0-.27,0-.45,0-.12,0-.28-.02-.39.21-.03.3-.03.46-.03,0,0,.84-.07,1.04.37.23-.21.56-.5.56-.83,0-.21-.1-.46-.54-.46-.16,0-.68.1-1.11.1.12-.26.63-1.01,1.08-1.56.07.21.17.44.41.63.04-.35.24-1.46.79-2.12.07.44.15.89.15,1.84,0,2.31-.56,4.02-1.74,4.35.15.27.48.51.82.51.43,0,.67-.49.91-.95.12.34.47,1.17.82,1.17s.69-.84.82-1.17c.24.46.48.95.91.95.34,0,.66-.24.82-.51-1.18-.32-1.74-2.04-1.74-4.35,0-.95.09-1.4.15-1.84.55.65.76,1.76.79,2.12.23-.19.34-.42.41-.63.45.55.96,1.3,1.08,1.56-.43,0-.95-.1-1.11-.1-.43,0-.53.25-.53.46,0,.32.33.62.56.83.2-.44,1.04-.37,1.04-.37.16,0,.25,0,.46.03-.02.12-.02.27-.02.39v.45c0,.52-.02.8-.4,1.15.07.05.27.21.56.21.59,0,.68-.43.68-1.36,0-.11,0-.1,0-.2.29.32.64.79.64,1.17,0,.08,0,.17-.03.27.47,0,.82-.48.82-.8,0-.49-.75-1.09-.98-1.36.04,0,.07,0,.08,0,.82,0,.98.27,1.06.48.22-.17.41-.5.41-.9,0-.23-.05-.49-.49-.49s-1.07.06-1.51.14c-.34-.47-1.01-1.39-1.33-2.11.13.02.31.04.59.04.14,0,.29-.02.38-.05-1.35-1.17-2.48-2.69-2.48-4.41,0-.27.06-.55.16-.85.04,0,.07-.01.11-.02l3.42,5.47c1.02,1.62,1.83,1.59,3.04,1.59-1-.76-1.67-1.75-1.98-2.25l-3.21-5.13c.18-.05.34-.12.51-.18l2.84,4.54c1.02,1.62,1.82,1.59,3.04,1.59-1.01-.78-1.66-1.75-1.98-2.25l-2.75-4.41c.16-.09.31-.18.46-.27l2.26,3.61c1.02,1.62,1.82,1.59,3.04,1.59-1.01-.77-1.66-1.74-1.98-2.25l-2.32-3.71c.14-.12.27-.25.39-.38l1.64,2.62c1.02,1.62,1.82,1.59,3.04,1.59-1-.77-1.66-1.75-1.98-2.25l-1.91-3.05c.1-.19.19-.38.26-.58l.96,1.53ZM43.48,58.43"/>
      <rect x="52.59" y="51.48" width="3.5" height="20"/>
      <rect class="cls-3" x="52.59" y="71.38" width="3.5" height="20.1"/>
      <rect class="cls-1" x="52.59" y="91.48" width="3.5" height="20"/>
      <path d="M65.08,59.47v-3.56h2.72v-.83h-2.72v-3.06h2.95l.07-.83h-4.07v8.28h1.04ZM70.97,54.36c.61,0,.94.47.94,1.26,0,.18-.01.34-.02.42h-2.09c.05-1.08.49-1.68,1.18-1.68h0ZM72.92,58.93l-.36-.68c-.13.13-.53.5-1.21.5-.97,0-1.5-.64-1.56-1.98h2.94c.04-.28.07-.62.07-1.12,0-1.38-.67-2.09-1.76-2.09-1.2,0-2.2.91-2.2,2.95,0,2.17.91,3.1,2.37,3.1,1.09,0,1.56-.52,1.71-.68h0ZM76.11,58.75c-.67,0-1.27-.53-1.27-2.11s.71-2.21,1.61-2.21c.35,0,.58.09.75.2v3.55c-.13.19-.47.57-1.08.57h0ZM77.25,58.86h.02v.61h.89v-8.59l-.97.11v2.76c-.18-.07-.45-.14-.82-.14-1.23,0-2.55.74-2.55,3.07,0,2.1.93,2.94,2.02,2.94.91,0,1.3-.58,1.41-.76h0ZM81.52,54.36c.61,0,.93.47.93,1.26,0,.18-.01.34-.02.42h-2.09c.05-1.08.49-1.68,1.18-1.68h0ZM83.47,58.93l-.36-.68c-.13.13-.53.5-1.21.5-.97,0-1.5-.64-1.56-1.98h2.94c.04-.28.07-.62.07-1.12,0-1.38-.67-2.09-1.76-2.09-1.2,0-2.2.91-2.2,2.95,0,2.17.91,3.1,2.36,3.1,1.09,0,1.56-.52,1.71-.68h0ZM87.29,53.7c-.09-.03-.25-.09-.53-.09-.73,0-1.04.43-1.21.89h-.02v-.78h-.89v5.76h.97v-4.22c.14-.39.47-.78,1.08-.78.26,0,.43.07.48.09l.12-.86ZM90.44,56.23h-.3c-1.31,0-2.4.45-2.4,1.78,0,.94.66,1.61,1.53,1.61.73,0,1.08-.49,1.21-.78h.02c.02.29.03.47.04.64h.92c-.02-.16-.07-.71-.07-1.2v-2.63c0-1.45-.63-2.08-1.8-2.08-.93,0-1.48.44-1.73.7l.41.65c.21-.2.6-.52,1.18-.52.62,0,.98.31.98,1.29v.55ZM90.44,56.95v1.27c-.12.18-.4.57-.96.57-.48,0-.77-.3-.77-.89,0-.63.49-.9,1.41-.93h.31ZM93.82,50.88l-.97.11v7.22c0,1.02.45,1.37,1.09,1.37.43,0,.68-.11.78-.16l-.09-.72c-.06.02-.18.07-.36.07-.34,0-.46-.17-.46-.65v-7.25ZM104.15,51.19l-1.95,5.73c-.18.53-.34,1.05-.35,1.41h-.02c-.02-.36-.18-.9-.36-1.43l-1.96-5.71h-1.16v8.28h1.01v-3.94c0-1-.01-1.95-.05-2.33h.04c.07.36.36,1.28.67,2.22l1.37,4.04h.83l1.37-4.04c.31-.94.59-1.86.67-2.22h.04c-.04.35-.05,1.33-.05,2.33v3.94h1.01v-8.28h-1.09ZM107.43,52.32c.38,0,.65-.29.65-.69s-.27-.68-.65-.68-.66.29-.66.68.27.69.66.69h0ZM107.91,53.71h-.97v5.76h.97v-5.76ZM111.55,54.39c.67,0,1,.4,1,1.37v3.71h.97v-3.78c0-1.56-.64-2.12-1.68-2.12-.9,0-1.41.59-1.52.79h-.02v-.65h-.89v5.76h.97v-4.44c.19-.24.59-.64,1.18-.64h0ZM115.46,52.32c.38,0,.65-.29.65-.69s-.27-.68-.65-.68-.66.29-.66.68.27.69.66.69h0ZM115.94,53.71h-.97v5.76h.97v-5.76ZM120.33,54.18c-.19-.19-.57-.61-1.46-.61-.94,0-1.67.64-1.67,1.49,0,.79.43,1.26,1.15,1.72l.36.23c.55.35.84.54.84,1.09,0,.37-.31.66-.89.66-.62,0-.99-.38-1.16-.57l-.47.77c.23.24.69.66,1.62.66,1.18,0,1.84-.71,1.84-1.62,0-.85-.48-1.32-1.26-1.79l-.36-.22c-.52-.31-.76-.55-.76-.98,0-.34.28-.61.79-.61s.88.34,1.01.48l.42-.7ZM124.24,59.36l-.13-.78c-.1.06-.31.17-.6.17-.49,0-.68-.24-.68-1.06v-3.19h1.26l.12-.79h-1.38v-1.61h-.86l-.11,1.61-.69.14v.65h.69v3.32c0,1.27.5,1.79,1.49,1.79.52,0,.82-.19.9-.25h0ZM127.84,53.7c-.09-.03-.25-.09-.53-.09-.73,0-1.04.43-1.21.89h-.02v-.78h-.89v5.76h.97v-4.22c.14-.39.47-.78,1.08-.78.26,0,.43.07.48.09l.12-.86ZM131.56,53.71l-.82,3.21c-.17.64-.31,1.22-.34,1.67h-.02c-.02-.45-.19-1.04-.38-1.68l-.9-3.19h-1.04l1.86,5.75-.09.3c-.25.89-.56,1.32-1.25,1.32-.2,0-.34-.05-.41-.09v.84c.06.04.23.11.47.11,1.14,0,1.64-.73,2.07-2.14l1.8-6.1h-.96ZM131.56,53.71"/>
      <path d="M66.26,66.5l.12-.79h-1.3v-1.03c0-.75.25-1.01.71-1.01.25,0,.43.1.53.16l.21-.81c-.1-.06-.41-.21-.82-.21-.85,0-1.6.5-1.6,1.76v1.15l-.7.13v.65h.7v4.97h.97v-4.97h1.18ZM66.84,68.59c0,2.16.97,3.02,2.25,3.02s2.31-.88,2.31-3.02-.97-3.03-2.25-3.03-2.3.9-2.3,3.03h0ZM70.39,68.59c0,1.52-.47,2.16-1.26,2.16s-1.27-.64-1.27-2.16.46-2.2,1.26-2.2,1.27.67,1.27,2.2h0ZM75.27,65.7c-.1-.03-.25-.09-.53-.09-.74,0-1.04.43-1.21.89h-.03v-.78h-.89v5.76h.97v-4.22c.15-.39.47-.78,1.08-.78.27,0,.43.07.48.09l.12-.86ZM82.65,63.19h-4.07v8.28h4.24l.06-.86h-3.25v-2.91h2.71v-.83h-2.71v-2.86h2.95l.07-.83ZM87.59,66.14c-.18-.2-.59-.58-1.47-.58-1.14,0-2.41.8-2.41,3.02s1.02,3.03,2.3,3.03c.9,0,1.34-.42,1.5-.6l-.4-.67c-.12.13-.42.41-1.01.41-.83,0-1.39-.55-1.39-2.25,0-1.52.65-2.11,1.48-2.11.57,0,.88.32.98.43l.41-.68ZM88.25,68.59c0,2.16.97,3.02,2.24,3.02s2.3-.88,2.3-3.02-.97-3.03-2.24-3.03-2.3.9-2.3,3.03h0ZM91.79,68.59c0,1.52-.47,2.16-1.26,2.16s-1.27-.64-1.27-2.16.47-2.2,1.26-2.2,1.27.67,1.27,2.2h0ZM96.17,66.39c.67,0,1,.4,1,1.37v3.71h.97v-3.78c0-1.56-.65-2.12-1.68-2.12-.9,0-1.41.59-1.52.79h-.02v-.65h-.89v5.76h.97v-4.44c.19-.24.59-.64,1.17-.64h0ZM99.33,68.59c0,2.16.97,3.02,2.25,3.02s2.3-.88,2.3-3.02-.97-3.03-2.25-3.03-2.3.9-2.3,3.03h0ZM102.87,68.59c0,1.52-.47,2.16-1.26,2.16s-1.27-.64-1.27-2.16.47-2.2,1.26-2.2,1.27.67,1.27,2.2h0ZM107.26,66.43c.6,0,.86.4.86,1.33v3.71h.97v-3.86c0-.22-.01-.42-.05-.6.22-.25.57-.58,1.1-.58.65,0,1,.4,1,1.33v3.71h.97v-3.86c0-1.37-.6-2.04-1.75-2.04-.75,0-1.27.44-1.53.77-.26-.52-.74-.77-1.39-.77-.79,0-1.29.53-1.44.79h-.02v-.65h-.89v5.76h.97v-4.44c.17-.2.54-.6,1.19-.6h0ZM114.07,64.32c.38,0,.65-.29.65-.69s-.27-.68-.65-.68-.66.29-.66.68.26.69.66.69h0ZM114.55,65.71h-.97v5.76h.97v-5.76ZM119.65,66.14c-.18-.2-.59-.58-1.46-.58-1.14,0-2.41.8-2.41,3.02s1.02,3.03,2.31,3.03c.9,0,1.34-.42,1.5-.6l-.4-.67c-.12.13-.42.41-1.01.41-.83,0-1.39-.55-1.39-2.25,0-1.52.65-2.11,1.48-2.11.57,0,.87.32.99.43l.41-.68ZM124.35,68.03l.69-2.29c.18-.61.34-1.18.35-1.54h.02c.01.36.17.96.34,1.56l.65,2.27h-2.04ZM125.81,63.19h-.82l-2.7,8.28h1.05l.76-2.65h2.51l.75,2.65h1.15l-2.7-8.28ZM131.7,66.5l.12-.79h-1.3v-1.03c0-.75.25-1.01.71-1.01.25,0,.43.1.53.16l.2-.81c-.09-.06-.41-.21-.82-.21-.85,0-1.59.5-1.59,1.76v1.15l-.7.13v.65h.7v4.97h.97v-4.97h1.18ZM135.08,66.5l.12-.79h-1.3v-1.03c0-.75.25-1.01.71-1.01.25,0,.43.1.53.16l.2-.81c-.09-.06-.41-.21-.81-.21-.86,0-1.6.5-1.6,1.76v1.15l-.7.13v.65h.7v4.97h.97v-4.97h1.18ZM138.34,68.23h-.3c-1.31,0-2.4.45-2.4,1.78,0,.94.66,1.61,1.53,1.61.74,0,1.08-.49,1.21-.78h.02c.01.29.02.47.04.64h.92c-.03-.16-.07-.71-.07-1.2v-2.63c0-1.45-.62-2.08-1.8-2.08-.92,0-1.47.44-1.73.7l.41.65c.22-.2.6-.52,1.18-.52.62,0,.98.31.98,1.29v.55ZM138.34,68.95v1.27c-.12.18-.39.57-.96.57-.48,0-.77-.3-.77-.89,0-.63.49-.9,1.42-.93h.31ZM141.26,64.32c.38,0,.65-.29.65-.69s-.27-.68-.65-.68-.66.29-.66.68.27.69.66.69h0ZM141.74,65.71h-.97v5.76h.97v-5.76ZM145.88,65.7c-.1-.03-.25-.09-.53-.09-.73,0-1.04.43-1.21.89h-.02v-.78h-.89v5.76h.97v-4.22c.14-.39.46-.78,1.08-.78.27,0,.43.07.48.09l.12-.86ZM149.58,66.18c-.19-.19-.58-.61-1.47-.61-.94,0-1.67.64-1.67,1.49,0,.79.43,1.26,1.15,1.72l.36.23c.55.35.84.54.84,1.09,0,.37-.31.66-.89.66-.62,0-.99-.38-1.16-.57l-.47.77c.23.24.7.66,1.62.66,1.18,0,1.84-.71,1.84-1.62,0-.85-.48-1.32-1.26-1.79l-.36-.22c-.52-.31-.76-.55-.76-.98,0-.34.28-.61.79-.61s.88.34,1.01.48l.42-.7ZM149.58,66.18"/>
      <path d="M66.2,80.23h-.3c-1.31,0-2.4.45-2.4,1.78,0,.94.66,1.61,1.54,1.61.73,0,1.08-.49,1.21-.78h.02c.01.29.02.47.04.64h.93c-.02-.16-.07-.71-.07-1.2v-2.63c0-1.45-.62-2.08-1.8-2.08-.93,0-1.48.44-1.73.7l.41.65c.21-.2.6-.52,1.18-.52.62,0,.99.31.99,1.29v.55ZM66.2,80.95v1.27c-.12.18-.4.57-.96.57-.48,0-.77-.3-.77-.89,0-.63.49-.9,1.42-.93h.31ZM70.77,78.39c.67,0,1,.4,1,1.37v3.71h.97v-3.78c0-1.56-.65-2.12-1.68-2.12-.9,0-1.42.59-1.52.79h-.03v-.65h-.89v5.76h.97v-4.44c.19-.24.59-.64,1.18-.64h0ZM76.21,82.75c-.67,0-1.27-.53-1.27-2.11s.71-2.21,1.61-2.21c.35,0,.58.09.74.2v3.55c-.13.19-.47.57-1.08.57h0ZM77.34,82.86h.03v.61h.89v-8.59l-.97.11v2.76c-.18-.07-.45-.14-.82-.14-1.22,0-2.54.74-2.54,3.07,0,2.1.92,2.94,2.02,2.94.91,0,1.3-.58,1.4-.76h0ZM86.56,75.19h-4.07v8.28h4.24l.06-.86h-3.25v-2.91h2.71v-.83h-2.71v-2.86h2.95l.07-.83ZM90.13,78.39c.67,0,1,.4,1,1.37v3.71h.97v-3.78c0-1.56-.65-2.12-1.68-2.12-.9,0-1.42.59-1.52.79h-.02v-.65h-.89v5.76h.97v-4.44c.19-.24.59-.64,1.18-.64h0ZM95.42,78.36c.61,0,.94.47.94,1.26,0,.18-.02.34-.03.42h-2.09c.05-1.08.49-1.68,1.18-1.68h0ZM97.36,82.93l-.36-.68c-.13.13-.53.5-1.21.5-.97,0-1.5-.64-1.56-1.98h2.94c.04-.28.08-.62.08-1.12,0-1.38-.67-2.09-1.77-2.09-1.2,0-2.19.91-2.19,2.95,0,2.17.91,3.1,2.36,3.1,1.09,0,1.56-.52,1.72-.68h0ZM101.19,77.7c-.1-.03-.25-.09-.53-.09-.73,0-1.04.43-1.21.89h-.02v-.78h-.89v5.76h.97v-4.22c.15-.39.47-.78,1.08-.78.26,0,.43.07.48.09l.12-.86ZM104.67,79.5c0,.83-.45,1.15-1.01,1.15s-1-.32-1-1.15.47-1.15,1.02-1.15.98.33.98,1.15h0ZM106.09,83.92c0-1.09-.82-1.53-1.91-1.53h-.73c-.42,0-.59-.17-.59-.41,0-.3.27-.46.46-.54.1.01.19.01.3.01,1.13,0,1.99-.73,1.99-1.96,0-.38-.1-.74-.28-1.03h.72l.13-.76h-1.75c-.24-.09-.49-.14-.77-.14-1.08,0-1.95.64-1.95,1.93,0,.91.4,1.49.99,1.77v.02c-.15.07-.7.31-.7.93,0,.36.13.62.38.81v.02c-.26.14-.96.55-.96,1.41,0,1,.66,1.56,1.88,1.56,1.7,0,2.78-.86,2.78-2.1h0ZM103.38,85.19c-.68,0-1.02-.31-1.02-.92,0-.58.31-.85.59-1.01.13.02.29.04.44.04h.73c.59,0,.97.22.97.77,0,.59-.54,1.13-1.71,1.13h0ZM110.05,77.71l-.82,3.21c-.17.64-.31,1.22-.34,1.67h-.02c-.03-.45-.2-1.04-.37-1.68l-.9-3.19h-1.04l1.86,5.75-.09.3c-.25.89-.56,1.32-1.25,1.32-.2,0-.34-.05-.41-.09v.84c.06.04.23.11.47.11,1.14,0,1.64-.73,2.07-2.14l1.8-6.1h-.96ZM110.05,77.71"/>
    </g>
  </g>
  <g id="Förderzusatz_en" data-name="Förderzusatz en">
    <g>
      <path d="M26.96,22.34c-.3-.19-.66-.33-1.06-.33-.73,0-1.21.39-1.21,1.1,0,.66.46.91.84,1.12l.97.55c.92.52,1.55,1,1.55,2.02,0,1.23-.87,2.12-2.41,2.12-.97,0-1.77-.38-1.87-.44-.02-.27-.05-1.01-.05-1.16,0-.38.11-.54.38-.54.09,0,.18.02.24.05l.25,1.13c.22.17.66.34,1.12.34.87,0,1.32-.47,1.32-1.15,0-.72-.48-.95-1.38-1.47l-.65-.38c-.71-.41-1.3-.9-1.3-1.95,0-1.22.99-1.96,2.33-1.96.94,0,1.43.25,1.7.4,0,0,.04.92.04,1.03,0,.33-.09.53-.37.53-.08,0-.17-.01-.23-.03l-.2-.98Z"/>
      <path d="M33.71,28.2l.77.11s.01.04.01.08c0,.19-.14.32-.39.34l-1.39.13v-.7h-.02c-.17.22-.63.76-1.56.76-1.13,0-1.65-.66-1.65-1.91v-2.69l-.75-.12s-.01-.06-.01-.11c0-.18.14-.31.39-.33l1.43-.14v3.32c0,.96.51,1.18.97,1.18.54,0,.9-.23,1.14-.51v-3.31l-.75-.12s-.01-.06-.01-.11c0-.18.14-.31.39-.33l1.43-.14v4.56Z"/>
      <path d="M36.73,24.32h.03c.24-.31.69-.75,1.54-.75,1.11,0,1.95.82,1.95,2.42,0,2-1.17,2.88-2.71,2.88-.31,0-.55-.04-.75-.09v1.55l.61.14c.11.02.15.05.15.14,0,.11-.07.26-.11.3h-2.4s-.01-.06-.01-.09c0-.19.13-.28.33-.35l.37-.13v-6.01l-.75-.12s-.01-.06-.01-.11c0-.18.14-.31.39-.33l1.43-.14-.06.69ZM36.79,27.98c.19.14.47.27.86.27.92,0,1.49-.62,1.49-2.11,0-1.21-.58-1.77-1.32-1.77-.51,0-.82.22-1.03.41v3.19Z"/>
      <path d="M42.74,24.32h.03c.24-.31.69-.75,1.54-.75,1.11,0,1.95.82,1.95,2.42,0,2-1.17,2.88-2.71,2.88-.31,0-.55-.04-.75-.09v1.55l.61.14c.11.02.15.05.15.14,0,.11-.07.26-.11.3h-2.4s-.01-.06-.01-.09c0-.19.13-.28.33-.35l.37-.13v-6.01l-.75-.12s-.01-.06-.01-.11c0-.18.14-.31.39-.33l1.43-.14-.06.69ZM42.8,27.98c.19.14.47.27.86.27.92,0,1.49-.62,1.49-2.11,0-1.21-.58-1.77-1.32-1.77-.51,0-.82.22-1.03.41v3.19Z"/>
      <path d="M52.16,26.2c0,1.82-1.28,2.72-2.56,2.72s-2.4-.84-2.4-2.61,1.26-2.73,2.6-2.73,2.36.79,2.36,2.62ZM48.32,26.24c0,1.41.57,2.04,1.35,2.04s1.36-.61,1.36-2.02-.58-2.07-1.36-2.07-1.35.62-1.35,2.04Z"/>
      <path d="M54.71,24.54h.03c.22-.36.61-.97,1.3-.97.5,0,.73.23.73.56,0,.23-.11.43-.19.54-.08-.04-.35-.16-.71-.16-.58,0-.87.23-1.1.54v3.17l.76.14c.11.02.15.05.15.14,0,.11-.08.26-.11.3h-2.55s-.01-.06-.01-.09c0-.19.13-.27.33-.35l.37-.13v-3.9l-.75-.12s-.01-.06-.01-.11c0-.18.14-.31.39-.33l1.43-.14-.06.91Z"/>
      <path d="M60.41,24.28h-1.44v3.08c0,.47.15.86.67.86.41,0,.75-.18.83-.25.05.08.09.24.09.35s-.37.6-1.33.6-1.34-.56-1.34-1.37v-3.27h-.79s-.01-.06-.01-.09c0-.2.13-.32.33-.36l.52-.13.24-1.42h.78v1.42h1.56l-.12.58Z"/>
      <path d="M62.31,26.26c.01,1.31.63,1.92,1.54,1.92.67,0,1.05-.26,1.32-.48.11.08.16.26.16.36,0,.26-.7.86-1.87.86-1.3,0-2.27-.74-2.27-2.57s1.11-2.77,2.31-2.77,1.79.73,1.79,1.78c0,.27-.05.64-.13.91h-2.86ZM64.15,25.7c.02-.09.05-.27.05-.45,0-.58-.21-1.08-.82-1.08s-.99.5-1.06,1.53h1.83Z"/>
      <path d="M70.82,28.2l.77.11s.01.04.01.08c0,.19-.14.32-.39.34l-1.39.13v-.68h-.03c-.23.33-.67.75-1.5.75-1.03,0-2-.66-2-2.5,0-1.96,1.37-2.85,2.72-2.85.31,0,.57.05.75.09v-1.84l-.75-.11s-.01-.07-.01-.12c0-.18.14-.31.39-.33l1.43-.14v7.06ZM69.75,24.52c-.16-.15-.44-.32-.89-.32-.85,0-1.49.61-1.49,2s.59,1.91,1.3,1.91c.61,0,.94-.28,1.08-.44v-3.15Z"/>
      <path d="M75.97,24.29h.03c.26-.32.74-.72,1.53-.72.99,0,1.94.66,1.94,2.48,0,2.03-1.35,2.87-2.78,2.87-.95,0-1.52-.24-1.79-.4v-6.69l-.74-.11s-.01-.07-.01-.12c0-.18.14-.31.39-.33l1.43-.14v3.15ZM75.97,27.99c.19.14.49.28.92.28.92,0,1.49-.61,1.49-2.03s-.68-1.84-1.36-1.84c-.49,0-.82.19-1.04.43v3.16Z"/>
      <path d="M84.9,24.24l-1.73,4.6c-.61,1.62-1.34,2.19-2.23,2.19-.5,0-.71-.23-.71-.59,0-.2.07-.35.15-.44.13.05.31.09.51.09.63,0,1.22-.3,1.57-1.13l-2-4.74-.51-.16s-.01-.07-.01-.11c0-.17.14-.25.3-.25h1.97c.08,0,.13.04.13.11s-.05.21-.07.25l-.59.16,1.24,3.44h.03l1.2-3.43-.79-.17s-.01-.07-.01-.11c0-.17.14-.25.29-.25h1.71c.08,0,.13.04.13.11s-.05.21-.07.25l-.5.18Z"/>
      <path d="M86.79,24.87c-.37,0-.65-.25-.65-.64s.28-.65.65-.65.66.25.66.65-.29.64-.66.64ZM86.79,28.93c-.37,0-.65-.25-.65-.64s.28-.65.65-.65.66.25.66.65-.29.64-.66.64Z"/>
    </g>
    <g>
      <path d="M28.43,138.3c0,1.83-1.28,2.74-2.58,2.74s-2.42-.85-2.42-2.63,1.27-2.75,2.62-2.75,2.37.79,2.37,2.64ZM24.57,138.34c0,1.42.57,2.06,1.36,2.06s1.37-.61,1.37-2.04-.58-2.08-1.37-2.08-1.36.63-1.36,2.06Z"/>
      <path d="M34.38,140.33l.63.14c.11.02.15.05.15.14,0,.11-.08.27-.11.3h-2.41s-.01-.06-.01-.1c0-.19.13-.29.33-.35l.35-.13v-2.68c0-.9-.51-1.18-1.03-1.18-.6,0-1,.29-1.22.47v3.39l.6.14c.11.02.15.05.15.14,0,.11-.08.27-.11.3h-2.41s-.01-.06-.01-.1c0-.19.13-.27.33-.35l.37-.13v-3.92l-.75-.12s-.01-.06-.01-.11c0-.18.14-.31.39-.33l1.44-.14-.06.74h.03c.29-.31.76-.81,1.74-.81,1.04,0,1.61.67,1.61,1.86v2.81Z"/>
      <path d="M41.14,136.37h-1.45v3.1c0,.48.15.87.68.87.41,0,.75-.18.84-.25.05.08.1.24.1.35s-.37.6-1.34.6-1.35-.56-1.35-1.38v-3.29h-.8s-.01-.06-.01-.1c0-.2.13-.32.33-.36l.52-.13.24-1.43h.78v1.43h1.57l-.12.58Z"/>
      <path d="M43.5,136.42h.02c.21-.25.72-.76,1.63-.76,1.06,0,1.66.62,1.66,1.86v2.81l.61.14c.11.02.15.05.15.14,0,.11-.08.27-.11.3h-2.41s-.01-.06-.01-.1c0-.19.13-.29.33-.35l.35-.13v-2.68c0-.9-.49-1.18-1.03-1.18-.66,0-1.01.29-1.21.49v3.37l.59.14c.11.02.15.05.15.14,0,.11-.07.27-.11.3h-2.41s-.01-.06-.01-.1c0-.19.13-.29.33-.35l.37-.13v-6.43l-.75-.11s-.01-.07-.01-.12c0-.18.14-.31.39-.33l1.45-.14v3.21Z"/>
      <path d="M49.35,138.36c.01,1.31.64,1.93,1.55,1.93.68,0,1.06-.26,1.33-.49.11.08.16.27.16.36,0,.26-.7.87-1.88.87-1.3,0-2.28-.74-2.28-2.59s1.11-2.79,2.32-2.79,1.8.73,1.8,1.79c0,.27-.05.65-.13.91h-2.87ZM51.21,137.8c.02-.1.05-.28.05-.46,0-.58-.21-1.08-.83-1.08s-1,.5-1.07,1.54h1.84Z"/>
      <path d="M57.04,136.38h.03c.26-.32.74-.72,1.54-.72,1,0,1.95.67,1.95,2.49,0,2.05-1.36,2.88-2.8,2.88-.95,0-1.53-.24-1.8-.4v-6.73l-.74-.11s-.01-.07-.01-.12c0-.18.14-.31.39-.33l1.44-.14v3.17ZM57.04,140.1c.19.14.49.29.92.29.92,0,1.49-.62,1.49-2.05s-.69-1.86-1.37-1.86c-.49,0-.83.19-1.05.43v3.18Z"/>
      <path d="M65.23,139.77c0,.42.16.55.34.55.24,0,.37-.13.4-.18.05.07.13.22.13.32,0,.14-.28.55-.96.55-.49,0-.79-.21-.89-.74h-.02c-.12.2-.51.76-1.39.76-.81,0-1.38-.55-1.38-1.39,0-1.13,1.24-1.56,2.43-1.56h.28v-.48c0-.96-.25-1.35-.91-1.35-.24,0-.46.07-.54.11-.1.2-.18.57-.23.93,0,0-.16.01-.24.01-.36,0-.56-.17-.56-.5,0-.66.87-1.16,1.86-1.16,1.17,0,1.71.64,1.71,1.83v2.28ZM63.91,138.61c-.86.04-1.35.35-1.35.91,0,.44.25.74.69.74s.76-.29.9-.46v-1.21h-.24Z"/>
      <path d="M69.09,136.44c-.12-.08-.38-.21-.7-.21-.35,0-.71.15-.71.59,0,.47.5.74,1.01,1.04.64.38,1.31.8,1.31,1.64s-.72,1.53-1.89,1.53c-.59,0-1.12-.18-1.35-.32-.04-.26-.07-.54-.07-.82,0-.42.12-.59.43-.59.05,0,.14.01.14.01l.22.9c.11.07.41.21.72.21.52,0,.85-.2.85-.65s-.51-.71-.99-1.01c-.65-.41-1.29-.83-1.29-1.74,0-.83.72-1.38,1.74-1.38.61,0,1.05.21,1.24.39.02.15.04.37.04.58,0,.37-.07.62-.46.62-.05,0-.13-.01-.13-.01l-.13-.8Z"/>
      <path d="M72.61,140.33l.63.14c.11.02.15.05.15.14,0,.11-.08.27-.11.3h-2.43s-.01-.06-.01-.1c0-.19.13-.27.33-.35l.37-.13v-3.92l-.75-.12s-.01-.06-.01-.11c0-.18.14-.31.39-.33l1.44-.14v4.61ZM72.07,134.67c-.39,0-.69-.27-.69-.68s.3-.68.69-.68.7.27.7.68-.32.68-.7.68Z"/>
      <path d="M76.55,136.44c-.12-.08-.38-.21-.7-.21-.35,0-.71.15-.71.59,0,.47.5.74,1.01,1.04.64.38,1.31.8,1.31,1.64s-.72,1.53-1.89,1.53c-.59,0-1.12-.18-1.35-.32-.04-.26-.07-.54-.07-.82,0-.42.12-.59.43-.59.05,0,.14.01.14.01l.22.9c.11.07.41.21.72.21.52,0,.85-.2.85-.65s-.51-.71-.99-1.01c-.65-.41-1.29-.83-1.29-1.74,0-.83.72-1.38,1.74-1.38.61,0,1.05.21,1.24.39.02.15.04.37.04.58,0,.37-.07.62-.46.62-.05,0-.13-.01-.13-.01l-.13-.8Z"/>
      <path d="M85.69,138.3c0,1.83-1.28,2.74-2.58,2.74s-2.42-.85-2.42-2.63,1.27-2.75,2.62-2.75,2.37.79,2.37,2.64ZM81.84,138.34c0,1.42.57,2.06,1.36,2.06s1.37-.61,1.37-2.04-.58-2.08-1.37-2.08-1.36.63-1.36,2.06Z"/>
      <path d="M89.64,136.37h-1.29v3.97l.72.14c.11.02.15.05.15.14,0,.11-.07.27-.11.3h-2.52s-.01-.06-.01-.1c0-.19.13-.27.33-.35l.36-.13v-3.97h-.78s-.01-.06-.01-.1c0-.2.13-.31.33-.36l.47-.13v-.11c0-1.71,1.04-2.53,1.95-2.53.53,0,.74.23.74.56,0,.27-.16.41-.32.5-.1-.11-.37-.31-.7-.31-.46,0-.61.25-.61.88,0,.33.02,1.01.02,1.01h1.41l-.12.58Z"/>
      <path d="M96.4,139.77c0,.42.16.55.34.55.24,0,.37-.13.4-.18.05.07.13.22.13.32,0,.14-.28.55-.96.55-.49,0-.8-.21-.89-.74h-.02c-.12.2-.51.76-1.39.76-.81,0-1.38-.55-1.38-1.39,0-1.13,1.24-1.56,2.43-1.56h.28v-.48c0-.96-.25-1.35-.91-1.35-.24,0-.46.07-.54.11-.1.2-.18.57-.23.93,0,0-.16.01-.24.01-.36,0-.56-.17-.56-.5,0-.66.87-1.16,1.86-1.16,1.17,0,1.71.64,1.71,1.83v2.28ZM95.08,138.61c-.86.04-1.35.35-1.35.91,0,.44.25.74.69.74s.76-.29.9-.46v-1.21h-.24Z"/>
      <path d="M104.7,140.31l.77.11s.01.04.01.08c0,.19-.14.32-.39.34l-1.4.13v-.69h-.03c-.23.33-.68.75-1.51.75-1.04,0-2.01-.67-2.01-2.51,0-1.97,1.38-2.86,2.73-2.86.31,0,.57.05.75.1v-1.85l-.75-.11s-.01-.07-.01-.12c0-.18.14-.31.39-.33l1.44-.14v7.1ZM103.63,136.61c-.16-.15-.45-.32-.89-.32-.86,0-1.5.61-1.5,2.01s.59,1.92,1.3,1.92c.61,0,.94-.29,1.08-.45v-3.17Z"/>
      <path d="M107.31,138.36c.01,1.31.64,1.93,1.55,1.93.68,0,1.06-.26,1.32-.49.11.08.16.27.16.36,0,.26-.7.87-1.88.87-1.3,0-2.28-.74-2.28-2.59s1.11-2.79,2.32-2.79,1.8.73,1.8,1.79c0,.27-.05.65-.13.91h-2.87ZM109.17,137.8c.02-.1.05-.28.05-.46,0-.58-.21-1.08-.83-1.08s-1,.5-1.07,1.54h1.84Z"/>
      <path d="M113.76,136.29c-.71,0-1.32.51-1.32,1.9s.52,2.11,1.52,2.11c.66,0,1.04-.34,1.21-.51.1.1.17.27.17.36,0,.27-.58.88-1.75.88-1.38,0-2.27-.87-2.27-2.62s1.2-2.76,2.63-2.76c1.17,0,1.46.57,1.46.88,0,.29-.14.55-.54.64-.16-.37-.4-.88-1.1-.88Z"/>
      <path d="M117.89,140.33l.62.14c.11.02.15.05.15.14,0,.11-.08.27-.11.3h-2.43s-.01-.06-.01-.1c0-.19.13-.27.33-.35l.37-.13v-3.92l-.75-.12s-.01-.06-.01-.11c0-.18.14-.31.39-.33l1.44-.14v4.61ZM117.35,134.67c-.39,0-.69-.27-.69-.68s.3-.68.69-.68.7.27.7.68-.32.68-.7.68Z"/>
      <path d="M121.82,136.44c-.12-.08-.38-.21-.7-.21-.35,0-.71.15-.71.59,0,.47.5.74,1.01,1.04.64.38,1.31.8,1.31,1.64s-.72,1.53-1.89,1.53c-.59,0-1.12-.18-1.35-.32-.04-.26-.07-.54-.07-.82,0-.42.12-.59.43-.59.05,0,.14.01.14.01l.22.9c.11.07.41.21.72.21.52,0,.85-.2.85-.65s-.51-.71-.99-1.01c-.65-.41-1.29-.83-1.29-1.74,0-.83.72-1.38,1.74-1.38.62,0,1.05.21,1.24.39.02.15.04.37.04.58,0,.37-.07.62-.46.62-.05,0-.13-.01-.13-.01l-.13-.8Z"/>
      <path d="M125.35,140.33l.62.14c.11.02.15.05.15.14,0,.11-.08.27-.11.3h-2.43s-.01-.06-.01-.1c0-.19.13-.27.33-.35l.37-.13v-3.92l-.75-.12s-.01-.06-.01-.11c0-.18.14-.31.39-.33l1.44-.14v4.61ZM124.81,134.67c-.39,0-.69-.27-.69-.68s.3-.68.69-.68.7.27.7.68-.32.68-.7.68Z"/>
      <path d="M131.8,138.3c0,1.83-1.28,2.74-2.58,2.74s-2.42-.85-2.42-2.63,1.27-2.75,2.62-2.75,2.37.79,2.37,2.64ZM127.94,138.34c0,1.42.57,2.06,1.36,2.06s1.37-.61,1.37-2.04-.58-2.08-1.37-2.08-1.36.63-1.36,2.06Z"/>
      <path d="M137.74,140.33l.62.14c.11.02.15.05.15.14,0,.11-.08.27-.11.3h-2.41s-.01-.06-.01-.1c0-.19.13-.29.33-.35l.35-.13v-2.68c0-.9-.51-1.18-1.03-1.18-.6,0-1,.29-1.22.47v3.39l.6.14c.11.02.15.05.15.14,0,.11-.08.27-.11.3h-2.41s-.01-.06-.01-.1c0-.19.13-.27.33-.35l.37-.13v-3.92l-.75-.12s-.01-.06-.01-.11c0-.18.14-.31.39-.33l1.44-.14-.06.74h.03c.29-.31.76-.81,1.74-.81,1.04,0,1.61.67,1.61,1.86v2.81Z"/>
      <path d="M24.83,148.39h.03c.26-.32.74-.72,1.54-.72,1,0,1.95.67,1.95,2.49,0,2.05-1.36,2.88-2.8,2.88-.95,0-1.53-.24-1.8-.4v-6.73l-.74-.11s-.01-.07-.01-.12c0-.18.14-.31.39-.33l1.44-.14v3.17ZM24.83,152.11c.19.14.49.29.92.29.92,0,1.49-.62,1.49-2.05s-.69-1.86-1.37-1.86c-.49,0-.83.19-1.05.43v3.18Z"/>
      <path d="M33.8,148.34l-1.74,4.62c-.61,1.63-1.35,2.2-2.25,2.2-.5,0-.71-.23-.71-.59,0-.2.07-.35.15-.45.13.05.31.1.51.1.64,0,1.23-.3,1.58-1.13l-2.01-4.77-.51-.16s-.01-.07-.01-.11c0-.17.14-.25.3-.25h1.98c.08,0,.13.04.13.11s-.05.21-.07.25l-.59.16,1.25,3.46h.03l1.21-3.45-.79-.17s-.01-.07-.01-.11c0-.17.14-.25.3-.25h1.72c.08,0,.13.04.13.11s-.05.21-.07.25l-.5.18Z"/>
      <path d="M39.97,148.38h-1.45v3.1c0,.48.15.87.68.87.41,0,.75-.18.84-.25.05.08.1.24.1.35s-.37.6-1.34.6-1.35-.56-1.35-1.38v-3.29h-.8s-.01-.06-.01-.1c0-.2.13-.32.33-.36l.52-.13.24-1.43h.78v1.43h1.57l-.12.58Z"/>
      <path d="M42.34,148.44h.02c.21-.25.72-.76,1.63-.76,1.06,0,1.66.62,1.66,1.86v2.81l.61.14c.11.02.15.05.15.14,0,.11-.08.27-.11.3h-2.41s-.01-.06-.01-.1c0-.19.13-.29.33-.35l.35-.13v-2.68c0-.9-.49-1.18-1.03-1.18-.66,0-1.01.29-1.21.49v3.37l.59.14c.11.02.15.05.15.14,0,.11-.07.27-.11.3h-2.41s-.01-.06-.01-.1c0-.19.13-.29.33-.35l.37-.13v-6.43l-.75-.11s-.01-.07-.01-.12c0-.18.14-.31.39-.33l1.45-.14v3.21Z"/>
      <path d="M48.19,150.38c.01,1.31.64,1.93,1.55,1.93.68,0,1.06-.26,1.33-.49.11.08.16.27.16.36,0,.26-.7.87-1.88.87-1.3,0-2.28-.74-2.28-2.59s1.11-2.79,2.32-2.79,1.8.73,1.8,1.79c0,.27-.05.65-.13.91h-2.87ZM50.04,149.81c.02-.1.05-.28.05-.46,0-.58-.21-1.08-.83-1.08s-1,.5-1.07,1.54h1.84Z"/>
      <path d="M59.63,146.47c-.22-.15-.71-.33-1.29-.33-1.29,0-2.55.85-2.55,3.04s.99,3.17,2.39,3.17c.51,0,.91-.1,1.22-.21v-2.11l-.65-.15c-.11-.02-.15-.05-.15-.12,0-.1.07-.22.12-.32h2.42s.01.06.01.12c0,.17-.1.3-.36.37l-.24.06v2.21c-.29.25-1.07.83-2.63.83-1.87,0-3.33-1.16-3.33-3.73,0-2.76,2.05-3.84,3.81-3.84,1.12,0,1.69.32,2.04.48.03.32.06.98.06,1.06,0,.33-.1.54-.37.54-.08,0-.17-.02-.24-.04l-.23-1.04Z"/>
      <path d="M63.05,150.38c.01,1.31.64,1.93,1.55,1.93.68,0,1.06-.26,1.33-.49.11.08.16.27.16.36,0,.26-.7.87-1.88.87-1.3,0-2.28-.74-2.28-2.59s1.11-2.79,2.32-2.79,1.8.73,1.8,1.79c0,.27-.05.65-.13.91h-2.87ZM64.9,149.81c.02-.1.05-.28.05-.46,0-.58-.21-1.08-.83-1.08s-1,.5-1.07,1.54h1.84Z"/>
      <path d="M68.65,148.65h.03c.22-.36.61-.97,1.3-.97.5,0,.73.23.73.56,0,.23-.11.43-.19.54-.08-.04-.35-.16-.71-.16-.58,0-.88.23-1.1.54v3.19l.76.14c.11.02.15.05.15.14,0,.11-.08.27-.11.3h-2.57s-.01-.06-.01-.1c0-.19.13-.27.33-.35l.37-.13v-3.92l-.75-.12s-.01-.06-.01-.11c0-.18.14-.31.39-.33l1.44-.14-.06.91Z"/>
      <path d="M79.47,152.35l.6.14c.11.02.15.05.15.14,0,.11-.07.27-.11.3h-2.4s-.01-.06-.01-.1c0-.19.13-.29.33-.35l.35-.13v-2.68c0-.92-.46-1.18-.95-1.18-.65,0-1.01.28-1.25.5.03.17.05.35.05.55v2.81l.61.14c.11.02.15.05.15.14,0,.11-.07.27-.11.3h-2.41s-.01-.06-.01-.1c0-.19.13-.29.33-.35l.35-.13v-2.68c0-.92-.45-1.18-.94-1.18-.59,0-.94.24-1.19.45v3.41l.6.14c.11.02.15.05.15.14,0,.11-.08.27-.11.3h-2.41s-.01-.06-.01-.1c0-.19.13-.27.33-.35l.37-.13v-3.92l-.75-.12s-.01-.06-.01-.11c0-.18.14-.31.39-.33l1.44-.14-.06.69h.03c.22-.24.74-.75,1.67-.75.65,0,1.12.3,1.37.86.29-.32.85-.86,1.8-.86,1.02,0,1.63.65,1.63,1.86v2.81Z"/>
      <path d="M84.59,151.79c0,.42.16.55.34.55.24,0,.37-.13.4-.18.05.07.13.22.13.32,0,.14-.28.55-.97.55-.49,0-.79-.21-.89-.74h-.02c-.12.2-.51.76-1.39.76-.81,0-1.38-.55-1.38-1.39,0-1.13,1.24-1.56,2.43-1.56h.28v-.48c0-.96-.25-1.35-.91-1.35-.24,0-.46.07-.54.11-.1.2-.18.57-.23.93,0,0-.16.01-.24.01-.36,0-.56-.17-.56-.5,0-.66.87-1.16,1.86-1.16,1.17,0,1.71.64,1.71,1.83v2.28ZM83.28,150.63c-.86.04-1.35.35-1.35.91,0,.44.25.74.69.74s.76-.29.9-.46v-1.21h-.24Z"/>
      <path d="M91.01,152.35l.63.14c.11.02.15.05.15.14,0,.11-.08.27-.11.3h-2.41s-.01-.06-.01-.1c0-.19.13-.29.33-.35l.35-.13v-2.68c0-.9-.51-1.18-1.03-1.18-.6,0-1,.29-1.22.47v3.39l.6.14c.11.02.15.05.15.14,0,.11-.08.27-.11.3h-2.41s-.01-.06-.01-.1c0-.19.13-.27.33-.35l.37-.13v-3.92l-.75-.12s-.01-.06-.01-.11c0-.18.14-.31.39-.33l1.44-.14-.06.74h.03c.29-.31.76-.81,1.74-.81,1.04,0,1.61.67,1.61,1.86v2.81Z"/>
      <path d="M98.64,149.14v.02c1.03.17,1.71.75,1.71,1.72,0,1.19-.97,2.05-2.88,2.05h-2.69s-.01-.06-.01-.12c0-.17.09-.32.36-.38l.45-.11v-6.13l-.65-.15c-.11-.02-.15-.05-.15-.12,0-.09.07-.22.12-.32h2.49c1.89,0,2.79.67,2.79,1.85,0,1.01-.62,1.48-1.53,1.69ZM97.29,146.25h-.57v2.67h.56c1.21,0,1.72-.59,1.72-1.35,0-.87-.54-1.32-1.71-1.32ZM97.42,149.54h-.7v2.74h.64c1.24,0,1.79-.58,1.79-1.41,0-.78-.58-1.32-1.73-1.32Z"/>
      <path d="M106.15,152.33l.77.11s.01.04.01.08c0,.19-.14.32-.39.34l-1.4.13v-.7h-.02c-.17.22-.64.76-1.57.76-1.13,0-1.66-.67-1.66-1.92v-2.7l-.75-.12s-.01-.06-.01-.11c0-.18.14-.31.39-.33l1.44-.14v3.34c0,.96.51,1.19.98,1.19.54,0,.9-.23,1.14-.51v-3.33l-.75-.12s-.01-.06-.01-.11c0-.18.14-.31.39-.33l1.44-.14v4.59Z"/>
      <path d="M112.64,152.35l.62.14c.11.02.15.05.15.14,0,.11-.08.27-.11.3h-2.41s-.01-.06-.01-.1c0-.19.13-.29.33-.35l.35-.13v-2.68c0-.9-.51-1.18-1.03-1.18-.6,0-1,.29-1.22.47v3.39l.6.14c.11.02.15.05.15.14,0,.11-.08.27-.11.3h-2.41s-.01-.06-.01-.1c0-.19.13-.27.33-.35l.37-.13v-3.92l-.75-.12s-.01-.06-.01-.11c0-.18.14-.31.39-.33l1.44-.14-.06.74h.03c.29-.31.76-.81,1.74-.81,1.04,0,1.61.67,1.61,1.86v2.81Z"/>
      <path d="M118.61,152.33l.77.11s.01.04.01.08c0,.19-.14.32-.39.34l-1.4.13v-.69h-.03c-.23.33-.68.75-1.51.75-1.04,0-2.01-.67-2.01-2.51,0-1.97,1.38-2.86,2.73-2.86.31,0,.57.05.75.1v-1.85l-.75-.11s-.01-.07-.01-.12c0-.18.14-.31.39-.33l1.44-.14v7.1ZM117.54,148.63c-.16-.15-.45-.32-.89-.32-.86,0-1.5.61-1.5,2.01s.59,1.92,1.3,1.92c.61,0,.94-.29,1.08-.45v-3.17Z"/>
      <path d="M121.23,150.38c.01,1.31.64,1.93,1.55,1.93.68,0,1.06-.26,1.32-.49.11.08.16.27.16.36,0,.26-.7.87-1.88.87-1.3,0-2.28-.74-2.28-2.59s1.11-2.79,2.32-2.79,1.8.73,1.8,1.79c0,.27-.05.65-.13.91h-2.87ZM123.08,149.81c.02-.1.05-.28.05-.46,0-.58-.21-1.08-.83-1.08s-1,.5-1.07,1.54h1.84Z"/>
      <path d="M127.65,148.46c-.12-.08-.38-.21-.7-.21-.35,0-.71.15-.71.59,0,.47.5.74,1.01,1.04.64.38,1.31.8,1.31,1.64s-.72,1.53-1.89,1.53c-.59,0-1.12-.18-1.35-.32-.04-.26-.07-.54-.07-.82,0-.42.12-.59.43-.59.05,0,.14.01.14.01l.22.9c.11.07.41.21.72.21.52,0,.85-.2.85-.65s-.51-.71-.99-1.01c-.65-.41-1.29-.83-1.29-1.74,0-.83.72-1.38,1.74-1.38.62,0,1.05.21,1.24.39.02.15.04.37.04.58,0,.37-.07.62-.46.62-.05,0-.13-.01-.13-.01l-.13-.8Z"/>
      <path d="M132.54,148.38h-1.45v3.1c0,.48.15.87.68.87.41,0,.75-.18.84-.25.05.08.1.24.1.35s-.37.6-1.34.6-1.35-.56-1.35-1.38v-3.29h-.8s-.01-.06-.01-.1c0-.2.13-.32.33-.36l.52-.13.24-1.43h.78v1.43h1.57l-.12.58Z"/>
      <path d="M137.03,151.79c0,.42.16.55.34.55.24,0,.37-.13.4-.18.05.07.13.22.13.32,0,.14-.28.55-.96.55-.49,0-.8-.21-.89-.74h-.02c-.12.2-.51.76-1.39.76-.81,0-1.38-.55-1.38-1.39,0-1.13,1.24-1.56,2.43-1.56h.28v-.48c0-.96-.25-1.35-.91-1.35-.24,0-.46.07-.54.11-.1.2-.18.57-.23.93,0,0-.16.01-.24.01-.36,0-.56-.17-.56-.5,0-.66.87-1.16,1.86-1.16,1.17,0,1.71.64,1.71,1.83v2.28ZM135.72,150.63c-.86.04-1.35.35-1.35.91,0,.44.25.74.69.74s.76-.29.9-.46v-1.21h-.24Z"/>
      <path d="M143.16,148.4h-.86c.2.26.33.58.33.96,0,1.12-.93,1.76-2.09,1.76-.18,0-.34-.02-.5-.05-.15.08-.3.23-.3.48,0,.25.17.37.53.37h1.23c.97,0,1.53.45,1.53,1.21,0,1.06-1.04,2.03-2.83,2.03-1.3,0-1.94-.46-1.94-1.23s.58-1.09.96-1.21v-.02c-.28-.15-.43-.4-.43-.74,0-.62.56-.9.76-1.01v-.02c-.59-.27-.97-.81-.97-1.57,0-1.11.93-1.7,2.01-1.7.29,0,.56.04.83.13h1.85l-.12.61ZM140.11,152.88c-.15,0-.28-.01-.39-.02-.28.16-.46.42-.46.78,0,.55.34.9,1.11.9,1.03,0,1.66-.48,1.66-1.04,0-.43-.24-.63-.78-.63h-1.14ZM139.64,149.38c0,.84.42,1.16.95,1.16.57,0,.99-.33.99-1.16,0-.75-.41-1.13-.96-1.13s-.98.32-.98,1.13Z"/>
    </g>
  </g>
</svg>