<?xml version="1.0" encoding="UTF-8" standalone="no"?>
<!-- Created with Inkscape (http://www.inkscape.org/) -->

<svg
   width="321.896mm"
   height="39.536488mm"
   viewBox="0 0 321.896 39.536488"
   version="1.1"
   id="svg1"
   xml:space="preserve"
   inkscape:version="1.3 (0e150ed6c4, 2023-07-21)"
   sodipodi:docname="GEWV_Logo.svg"
   xmlns:inkscape="http://www.inkscape.org/namespaces/inkscape"
   xmlns:sodipodi="http://sodipodi.sourceforge.net/DTD/sodipodi-0.dtd"
   xmlns="http://www.w3.org/2000/svg"
   xmlns:svg="http://www.w3.org/2000/svg"><sodipodi:namedview
     id="namedview1"
     pagecolor="#505050"
     bordercolor="#eeeeee"
     borderopacity="1"
     inkscape:showpageshadow="0"
     inkscape:pageopacity="0"
     inkscape:pagecheckerboard="0"
     inkscape:deskcolor="#505050"
     inkscape:document-units="mm"
     inkscape:zoom="1.0449705"
     inkscape:cx="612.45748"
     inkscape:cy="135.41052"
     inkscape:window-width="3440"
     inkscape:window-height="1369"
     inkscape:window-x="2872"
     inkscape:window-y="-8"
     inkscape:window-maximized="1"
     inkscape:current-layer="layer1" /><defs
     id="defs1"><pattern
       id="EMFhbasepattern"
       patternUnits="userSpaceOnUse"
       width="6"
       height="6"
       x="0"
       y="0" /></defs><g
     inkscape:label="Ebene 1"
     inkscape:groupmode="layer"
     id="layer1"
     transform="translate(50.872442,-114.96753)"><g
       id="g1"
       transform="translate(-79.47837,-0.50639388)"><path
         style="fill:#1a3f66;fill-opacity:1;fill-rule:evenodd;stroke:none;stroke-width:0.264583"
         d="m 135.46238,144.24405 c -1.05022,-2.25922 -1.63035,-4.76836 -1.63035,-7.41745 0,-9.89661 8.15175,-17.92386 18.20391,-17.92386 0.4801,0 0.9602,0.02 1.4203,0.06 l 0.78017,-3.4888 h -29.03623 l -1.50032,6.17788 h 9.94213 l -5.49117,22.59225 z"
         id="path1" /><path
         style="fill:#1a3f66;fill-opacity:1;fill-rule:evenodd;stroke:none;stroke-width:0.264583"
         d="m 92.133094,115.47392 -6.571408,28.77013 h -8.041722 l 6.58141,-28.77013 z"
         id="path27" /><path
         style="fill:#1a3f66;fill-opacity:1;fill-rule:evenodd;stroke:none;stroke-width:0.264583"
         d="m 122.32957,115.47392 -1.53033,6.18788 h -17.09366 l -1.02022,4.56843 h 17.03365 l -1.3903,5.828 h -17.01365 l -1.29027,5.63807 h 16.90362 l -1.51032,6.54775 H 90.622771 l 6.561407,-28.77013 z"
         id="path28" /><path
         style="fill:none;stroke:#fefefe;stroke-width:0.350075px;stroke-linecap:butt;stroke-linejoin:miter;stroke-miterlimit:4;stroke-dasharray:none;stroke-opacity:1"
         d="m 149.16532,122.32157 c 0.22005,0.19993 0.58013,0.33988 1.08023,0.33988 -0.5001,0 -0.86018,-0.13995 -1.08023,-0.33988 m -2.77059,0.75974 c -2.51054,2.87901 -2.81061,9.57672 -0.4401,16.60431 1.77038,5.2382 4.61099,9.43676 7.48161,11.55603"
         id="path29" /><path
         style="fill:#113866;fill-opacity:1;fill-rule:evenodd;stroke:none;stroke-width:0.264583"
         d="m 151.62585,151.35162 c -6.81146,0 -12.53269,-4.65841 -14.15304,-10.96624 v 0 c -0.03,-0.11996 -0.06,-0.22993 -0.09,-0.34988 -0.08,-0.35988 -0.15003,-0.70976 -0.20004,-1.07963 v 0 c -0.02,-0.11996 -0.04,-0.23992 -0.06,-0.35988 v 0 c -0.01,-0.11996 -0.03,-0.24992 -0.04,-0.36987 v 0 c -0.01,-0.11996 -0.02,-0.24992 -0.03,-0.36988 v 0 c -0.01,-0.11996 -0.02,-0.24991 -0.02,-0.36987 v 0 c -0.01,-0.12996 -0.02,-0.24991 -0.02,-0.37987 v 0 c 0,-0.11996 0,-0.24991 0,-0.36987 v 0 c 0,-0.12996 0,-0.25991 0,-0.37987 v 0 c 0,-0.12996 0.01,-0.24992 0.02,-0.37987 v 0 c 0,-0.11996 0.01,-0.24992 0.02,-0.36988 v 0 c 0.57013,-7.54741 6.88148,-13.48537 14.57313,-13.49537 8.07173,0.01 14.61313,6.54776 14.61313,14.62499 0,8.06723 -6.5414,14.61499 -14.61313,14.61499 z"
         id="path30" /><path
         style="fill:#183b68;fill-opacity:1;fill-rule:evenodd;stroke:none;stroke-width:0.264583"
         d="m 166.15896,136.73663 c 0,8.00725 -6.50139,14.50502 -14.52311,14.50502 -8.02172,0 -14.52311,-6.49777 -14.52311,-14.50502 0,-8.01725 6.50139,-14.51502 14.52311,-14.51502 8.02172,0 14.52311,6.49777 14.52311,14.51502 z"
         id="path31" /><path
         style="fill:#203e6a;fill-opacity:1;fill-rule:evenodd;stroke:none;stroke-width:0.264583"
         d="m 166.04894,136.73663 c 0,7.95727 -6.45138,14.40506 -14.41309,14.40506 -7.96171,0 -14.41309,-6.44779 -14.41309,-14.40506 0,-7.95727 6.45138,-14.41506 14.41309,-14.41506 7.96171,0 14.41309,6.45779 14.41309,14.41506 z"
         id="path32" /><path
         style="fill:#25416d;fill-opacity:1;fill-rule:evenodd;stroke:none;stroke-width:0.264583"
         d="m 165.94892,136.73663 c 0,7.89729 -6.41138,14.30509 -14.31307,14.30509 -7.90169,0 -14.31307,-6.4078 -14.31307,-14.30509 0,-1.60945 2.28049,-14.3051 14.31307,-14.3051 7.90169,0 14.31307,6.39781 14.31307,14.3051 z"
         id="path33" /><path
         style="fill:#2e4873;fill-opacity:1;fill-rule:evenodd;stroke:none;stroke-width:0.264583"
         d="m 165.73887,136.73663 c 0,7.77733 -6.31135,14.09516 -14.10302,14.09516 -7.79167,0 -14.10302,-6.31783 -14.10302,-14.09516 0,-7.78733 6.5714,-13.79527 14.36308,-13.79527 7.34157,0 13.84296,6.9876 13.84296,13.79527 z"
         id="path34" /><path
         style="fill:#354c76;fill-opacity:1;fill-rule:evenodd;stroke:none;stroke-width:0.264583"
         d="m 165.63885,136.73663 c 0,7.72735 -6.27134,13.9852 -14.003,13.9852 -7.73166,0 -14.003,-6.25785 -14.003,-13.9852 0,-7.72735 6.27134,-13.9952 14.003,-13.9952 7.73166,0 14.003,6.26785 14.003,13.9952 z"
         id="path35" /><path
         style="fill:#3b507b;fill-opacity:1;fill-rule:evenodd;stroke:none;stroke-width:0.264583"
         d="m 165.52883,136.73663 c 0,7.66737 -6.22134,13.88524 -13.89298,13.88524 -7.67164,0 -13.89298,-6.21787 -13.89298,-13.88524 0,-7.67737 6.22134,-13.89524 13.89298,-13.89524 7.67164,0 13.89298,6.21787 13.89298,13.89524 z"
         id="path36" /><path
         style="fill:#3f537d;fill-opacity:1;fill-rule:evenodd;stroke:none;stroke-width:0.264583"
         d="m 165.42881,136.73663 c 0,7.60739 -6.18133,13.77527 -13.79296,13.77527 -7.62163,0 -13.79296,-6.16788 -13.79296,-13.77527 0,-7.61739 6.17133,-13.78527 13.79296,-13.78527 7.61163,0 13.79296,6.16788 13.79296,13.78527 z"
         id="path37" /><path
         style="fill:#455780;fill-opacity:1;fill-rule:evenodd;stroke:none;stroke-width:0.264583"
         d="m 165.31878,136.73663 c 0,7.54741 -6.12131,13.67531 -13.68293,13.67531 -7.56162,0 -13.68293,-6.1279 -13.68293,-13.67531 0,-7.55741 6.12131,-13.68531 13.68293,-13.68531 7.56162,0 13.68293,6.1279 13.68293,13.68531 z"
         id="path38" /><path
         style="fill:#485b84;fill-opacity:1;fill-rule:evenodd;stroke:none;stroke-width:0.264583"
         d="m 164.52861,136.73663 c 0,7.49743 -6.0813,13.57534 -13.58291,13.57534 -7.50161,0 -13.58291,-6.07791 -13.58291,-13.57534 0,-7.49743 6.0813,-13.57535 13.58291,-13.57535 7.50161,0 13.58291,6.07792 13.58291,13.57535 z"
         id="path39" /><path
         style="fill:#4f6188;fill-opacity:1;fill-rule:evenodd;stroke:none;stroke-width:0.264583"
         d="m 165.10874,136.73663 c 0,7.43745 -6.0313,13.46538 -13.47289,13.46538 -7.4416,0 -13.48289,-6.02793 -13.48289,-13.46538 0,-7.44745 6.04129,-13.47538 13.48289,-13.47538 7.44159,0 13.47289,6.02793 13.47289,13.47538 z"
         id="path40" /><path
         style="fill:#54648c;fill-opacity:1;fill-rule:evenodd;stroke:none;stroke-width:0.264583"
         d="m 165.00872,136.73663 c 0,7.37747 -5.99129,13.36541 -13.37287,13.36541 -7.39158,0 -13.37287,-5.98794 -13.37287,-13.36541 0,-7.38747 5.98129,-13.36542 13.37287,-13.36542 7.38158,0 13.37287,5.97795 13.37287,13.36542 z"
         id="path41" /><path
         style="fill:#586990;fill-opacity:1;fill-rule:evenodd;stroke:none;stroke-width:0.264583"
         d="m 164.90869,136.73663 c 0,7.31749 -5.94127,13.25545 -13.27284,13.25545 -7.33157,0 -13.27285,-5.93796 -13.27285,-13.25545 0,-7.32749 5.94128,-13.26545 13.27285,-13.26545 7.33157,0 13.27284,5.93796 13.27284,13.26545 z"
         id="path42" /><path
         style="fill:#606e94;fill-opacity:1;fill-rule:evenodd;stroke:none;stroke-width:0.264583"
         d="m 164.79867,136.73663 c 0,7.2675 -5.89126,13.15549 -13.16282,13.15549 -7.27156,0 -13.16282,-5.88799 -13.16282,-13.15549 0,-7.26751 5.89126,-13.16549 13.16282,-13.16549 7.27156,0 13.16282,5.89798 13.16282,13.16549 z"
         id="path43" /><path
         style="fill:#657399;fill-opacity:1;fill-rule:evenodd;stroke:none;stroke-width:0.264583"
         d="m 164.69865,136.73663 c 0,7.20753 -5.85126,13.04552 -13.0628,13.04552 -7.21155,0 -13.0628,-5.83799 -13.0628,-13.04552 0,-7.21753 5.85125,-13.05553 13.0628,-13.05553 7.21154,0 13.0628,5.838 13.0628,13.05553 z"
         id="path44" /><path
         style="fill:#69789c;fill-opacity:1;fill-rule:evenodd;stroke:none;stroke-width:0.264583"
         d="m 163.69843,136.73663 c 0,7.14754 -5.80124,12.94556 -12.95277,12.94556 -7.15153,0 -12.95278,-5.79802 -12.95278,-12.94556 0,-7.15755 5.80125,-12.95556 12.95278,-12.95556 7.15153,0 12.95277,5.79801 12.95277,12.95556 z"
         id="path45" /><path
         style="fill:#6f7ea1;fill-opacity:1;fill-rule:evenodd;stroke:none;stroke-width:0.264583"
         d="m 164.48861,136.73663 c 0,7.08757 -5.75124,12.84559 -12.85276,12.84559 -7.10152,0 -12.85275,-5.75802 -12.85275,-12.84559 0,-7.09757 5.75123,-12.8456 12.85275,-12.8456 7.10152,0 12.85276,5.74803 12.85276,12.8456 z"
         id="path46" /><path
         style="fill:#7482a4;fill-opacity:1;fill-rule:evenodd;stroke:none;stroke-width:0.264583"
         d="m 164.37858,136.73663 c 0,7.02759 -5.70122,12.73563 -12.74273,12.73563 -7.04151,0 -12.75273,-5.70804 -12.75273,-12.73563 0,-7.03759 5.71122,-12.74563 12.75273,-12.74563 7.04151,0 12.74273,5.70804 12.74273,12.74563 z"
         id="path47" /><path
         style="fill:#7c88a8;fill-opacity:1;fill-rule:evenodd;stroke:none;stroke-width:0.264583"
         d="m 164.27856,136.73663 c 0,6.9776 -5.66121,12.63566 -12.64271,12.63566 -6.9815,0 -12.64271,-5.65806 -12.64271,-12.63566 0,-6.98761 5.66121,-12.63567 12.64271,-12.63567 6.9815,0 12.64271,5.64806 12.64271,12.63567 z"
         id="path48" /><path
         style="fill:#818bab;fill-opacity:1;fill-rule:evenodd;stroke:none;stroke-width:0.264583"
         d="m 164.16854,136.73663 c 0,6.91762 -5.61121,12.5257 -12.53269,12.5257 -6.92148,0 -12.54269,-5.60808 -12.54269,-12.5257 0,-6.92763 5.62121,-12.5357 12.54269,-12.5357 6.92148,0 12.53269,5.60807 12.53269,12.5357 z"
         id="path49" /><path
         style="fill:#8791b1;fill-opacity:1;fill-rule:evenodd;stroke:none;stroke-width:0.264583"
         d="m 165.15875,137.02653 c 0,6.86764 -5.5712,12.42574 -12.43267,12.42574 -6.87147,0 -12.44266,-5.5581 -12.44266,-12.42574 0,-6.85765 5.57119,-12.42574 12.44266,-12.42574 6.86147,0 12.43267,5.56809 12.43267,12.42574 z"
         id="path50" /><path
         style="fill:#8d97b6;fill-opacity:1;fill-rule:evenodd;stroke:none;stroke-width:0.264583"
         d="m 163.96849,136.73663 c 0,6.79766 -5.52118,12.31577 -12.33264,12.31577 -6.81146,0 -12.33264,-5.51811 -12.33264,-12.31577 0,-6.80767 5.52118,-12.32578 12.33264,-12.32578 6.81146,0 12.33264,5.51811 12.33264,12.32578 z"
         id="path51" /><path
         style="fill:#939cba;fill-opacity:1;fill-rule:evenodd;stroke:none;stroke-width:0.264583"
         d="m 163.85847,136.73663 c 0,6.74768 -5.47117,12.21581 -12.22262,12.21581 -6.75145,0 -12.22262,-5.46813 -12.22262,-12.21581 0,-6.74769 5.47117,-12.22581 12.22262,-12.22581 6.75145,0 12.22262,5.47812 12.22262,12.22581 z"
         id="path52" /><path
         style="fill:#9aa2be;fill-opacity:1;fill-rule:evenodd;stroke:none;stroke-width:0.264583"
         d="m 163.75845,136.73663 c 0,6.6877 -5.43117,12.11584 -12.1226,12.11584 -6.69143,0 -12.1226,-5.42814 -12.1226,-12.11584 0,-6.69771 5.43117,-12.11585 12.1226,-12.11585 6.69143,0 12.1226,5.41814 12.1226,12.11585 z"
         id="path53" /><path
         style="fill:#9ea6c2;fill-opacity:1;fill-rule:evenodd;stroke:none;stroke-width:0.264583"
         d="m 163.84847,135.24714 c 0,6.63772 -5.38115,12.01588 -12.01258,12.01588 -6.64142,0 -12.02257,-5.37816 -12.02257,-12.01588 0,-6.62773 5.38115,-12.00588 12.02257,-12.00588 6.63143,0 12.01258,5.37815 12.01258,12.00588 z"
         id="path54" /><path
         style="fill:#a3aac6;fill-opacity:1;fill-rule:evenodd;stroke:none;stroke-width:0.264583"
         d="m 163.5484,136.73663 c 0,6.56774 -5.33114,11.90591 -11.91255,11.90591 -6.58141,0 -11.91255,-5.33817 -11.91255,-11.90591 0,-6.57775 5.33114,-11.90592 11.91255,-11.90592 6.58141,0 11.91255,5.32817 11.91255,11.90592 z"
         id="path55" /><path
         style="fill:#aab0ca;fill-opacity:1;fill-rule:evenodd;stroke:none;stroke-width:0.264583"
         d="m 163.43838,136.73663 c 0,6.51776 -5.28113,11.79595 -11.80253,11.79595 -6.5214,0 -11.81253,-5.27819 -11.81253,-11.79595 0,-6.51777 5.29113,-11.80595 11.81253,-11.80595 6.5214,0 11.80253,5.28818 11.80253,11.80595 z"
         id="path56" /><path
         style="fill:#b0b5cd;fill-opacity:1;fill-rule:evenodd;stroke:none;stroke-width:0.264583"
         d="m 163.33836,136.73663 c 0,6.45778 -5.24113,11.69599 -11.70251,11.69599 -6.46139,0 -11.70251,-5.23821 -11.70251,-11.69599 0,-6.46778 5.24112,-11.70599 11.70251,-11.70599 6.46138,0 11.70251,5.23821 11.70251,11.70599 z"
         id="path57" /><path
         style="fill:#b5bbd1;fill-opacity:1;fill-rule:evenodd;stroke:none;stroke-width:0.264583"
         d="m 162.54819,137.81626 c 0,6.4078 -5.20111,11.59602 -11.60249,11.59602 -6.41137,0 -11.60249,-5.18822 -11.60249,-11.59602 0,-6.39781 5.19112,-11.59603 11.60249,-11.59603 6.40138,0 11.60249,5.19822 11.60249,11.59603 z"
         id="path58" /><path
         style="fill:#bbbfd5;fill-opacity:1;fill-rule:evenodd;stroke:none;stroke-width:0.264583"
         d="m 163.12831,136.73663 c 0,6.33782 -5.1411,11.48606 -11.49246,11.48606 -6.35136,0 -11.49246,-5.14824 -11.49246,-11.48606 0,-6.34783 5.1411,-11.49606 11.49246,-11.49606 6.35136,0 11.49246,5.14823 11.49246,11.49606 z"
         id="path59" /><path
         style="fill:#bec3d8;fill-opacity:1;fill-rule:evenodd;stroke:none;stroke-width:0.264583"
         d="m 163.02829,136.73663 c 0,6.28784 -5.10109,11.38609 -11.39244,11.38609 -6.29135,0 -11.39244,-5.09825 -11.39244,-11.38609 0,-6.28785 5.10109,-11.3861 11.39244,-11.3861 6.29135,0 11.39244,5.09825 11.39244,11.3861 z"
         id="path60" /><path
         style="fill:#c3c7db;fill-opacity:1;fill-rule:evenodd;stroke:none;stroke-width:0.264583"
         d="m 162.91827,136.73663 c 0,6.22786 -5.05108,11.27613 -11.28242,11.27613 -6.23134,0 -11.29242,-5.04827 -11.29242,-11.27613 0,-6.23786 5.06108,-11.28613 11.29242,-11.28613 6.23134,0 11.28242,5.04827 11.28242,11.28613 z"
         id="path61" /><path
         style="fill:#c9cddf;fill-opacity:1;fill-rule:evenodd;stroke:none;stroke-width:0.264583"
         d="m 162.81825,136.73663 c 0,6.16788 -5.01108,11.17616 -11.1824,11.17616 -6.18132,0 -11.1824,-5.00828 -11.1824,-11.17616 0,-6.17788 5.00108,-11.17617 11.1824,-11.17617 6.17132,0 11.1824,4.99829 11.1824,11.17617 z"
         id="path62" /><path
         style="fill:#cdd0e0;fill-opacity:1;fill-rule:evenodd;stroke:none;stroke-width:0.264583"
         d="m 162.70822,136.73663 c 0,6.1079 -4.95106,11.0662 -11.07237,11.0662 -6.12131,0 -11.08238,-4.9583 -11.08238,-11.0662 0,-6.1179 4.96107,-11.0762 11.08238,-11.0762 6.12131,0 11.07237,4.9583 11.07237,11.0762 z"
         id="path63" /><path
         style="fill:#d3d5e4;fill-opacity:1;fill-rule:evenodd;stroke:none;stroke-width:0.264583"
         d="m 162.6082,136.73663 c 0,6.05792 -4.91105,10.96624 -10.97235,10.96624 -6.0613,0 -10.97235,-4.90832 -10.97235,-10.96624 0,-6.05793 4.91105,-10.97624 10.97235,-10.97624 6.0613,0 10.97235,4.91831 10.97235,10.97624 z"
         id="path64" /><path
         style="fill:#d6dae8;fill-opacity:1;fill-rule:evenodd;stroke:none;stroke-width:0.264583"
         d="m 162.00807,136.03687 c 0,6.00794 -4.86104,10.86627 -10.87233,10.86627 -6.00128,0 -10.86233,-4.85833 -10.86233,-10.86627 0,-5.99795 4.86105,-10.85628 10.86233,-10.85628 6.01129,0 10.87233,4.85833 10.87233,10.85628 z"
         id="path65" /><path
         style="fill:#dcdeeb;fill-opacity:1;fill-rule:evenodd;stroke:none;stroke-width:0.264583"
         d="m 162.39816,136.73663 c 0,5.93796 -4.82104,10.75631 -10.76231,10.75631 -5.95127,0 -10.76231,-4.81835 -10.76231,-10.75631 0,-5.94796 4.81104,-10.76631 10.76231,-10.76631 5.94127,0 10.76231,4.81835 10.76231,10.76631 z"
         id="path66" /><path
         style="fill:#e0e3ee;fill-opacity:1;fill-rule:evenodd;stroke:none;stroke-width:0.264583"
         d="m 162.29814,136.73663 c 0,5.87798 -4.77103,10.65634 -10.66229,10.65634 -5.89126,0 -10.66228,-4.77836 -10.66228,-10.65634 0,-5.88798 4.77102,-10.65635 10.66228,-10.65635 5.89126,0 10.66229,4.76837 10.66229,10.65635 z"
         id="path67" /><path
         style="fill:#e6e8f1;fill-opacity:1;fill-rule:evenodd;stroke:none;stroke-width:0.264583"
         d="m 162.18811,136.73663 c 0,5.828 -4.72101,10.54638 -10.55226,10.54638 -5.83125,0 -10.56226,-4.71838 -10.56226,-10.54638 0,-5.828 4.73101,-10.55638 10.56226,-10.55638 5.83125,0 10.55226,4.72838 10.55226,10.55638 z"
         id="path68" /><path
         style="fill:#eaeaf1;fill-opacity:1;fill-rule:evenodd;stroke:none;stroke-width:0.264583"
         d="m 162.08809,136.73663 c 0,5.76802 -4.681,10.44641 -10.45224,10.44641 -5.77124,0 -10.45224,-4.67839 -10.45224,-10.44641 0,-5.77802 4.681,-10.44642 10.45224,-10.44642 5.77124,0 10.45224,4.6684 10.45224,10.44642 z"
         id="path69" /><path
         style="fill:#edeef3;fill-opacity:1;fill-rule:evenodd;stroke:none;stroke-width:0.264583"
         d="m 161.97807,136.73663 c 0,5.70804 -4.63099,10.33645 -10.34222,10.33645 -5.72123,0 -10.35222,-4.62841 -10.35222,-10.33645 0,-5.71804 4.63099,-10.34645 10.35222,-10.34645 5.71123,0 10.34222,4.62841 10.34222,10.34645 z"
         id="path70" /><path
         style="fill:#f1f1f8;fill-opacity:1;fill-rule:evenodd;stroke:none;stroke-width:0.264583"
         d="m 161.87805,136.73663 c 0,5.64806 -4.58099,10.23649 -10.2422,10.23649 -5.66121,0 -10.24219,-4.58843 -10.24219,-10.23649 0,-5.65806 4.58098,-10.24649 10.24219,-10.24649 5.66121,0 10.2422,4.58843 10.2422,10.24649 z"
         id="path71" /><path
         style="fill:#f4f5f9;fill-opacity:1;fill-rule:evenodd;stroke:none;stroke-width:0.264583"
         d="m 160.98786,137.61633 c 0,5.59808 -4.54098,10.13652 -10.14218,10.13652 -5.6012,0 -10.14217,-4.53844 -10.14217,-10.13652 0,-5.58809 4.54097,-10.12653 10.14217,-10.12653 5.6012,0 10.14218,4.53844 10.14218,10.12653 z"
         id="path72" /><path
         style="fill:#f8f8fb;fill-opacity:1;fill-rule:evenodd;stroke:none;stroke-width:0.264583"
         d="m 161.668,136.73663 c 0,5.5381 -4.49096,10.02656 -10.03215,10.02656 -5.54119,0 -10.03215,-4.48846 -10.03215,-10.02656 0,-5.5481 4.49096,-10.03656 10.03215,-10.03656 5.54119,0 10.03215,4.48846 10.03215,10.03656 z"
         id="path73" /><path
         style="fill:#fefefe;fill-opacity:1;fill-rule:evenodd;stroke:none;stroke-width:0.264583"
         d="m 161.45796,136.73663 c 0,5.41814 -4.40095,9.81663 -9.82211,9.81663 -5.43116,0 -9.83211,-4.39849 -9.83211,-9.81663 0,-5.42814 4.40095,-9.82663 9.83211,-9.82663 5.42116,0 9.82211,4.39849 9.82211,9.82663 z"
         id="path74" /><path
         style="fill:#fefefe;fill-opacity:1;fill-rule:evenodd;stroke:none;stroke-width:0.264583"
         d="m 161.35793,136.73663 c 0,5.35816 -4.35093,9.71666 -9.72208,9.71666 -5.37115,0 -9.72208,-4.3585 -9.72208,-9.71666 0,-5.36816 4.35093,-9.71667 9.72208,-9.71667 5.37115,0 9.72208,4.34851 9.72208,9.71667 z"
         id="path75" /><path
         style="fill:#fefefe;fill-opacity:1;fill-rule:evenodd;stroke:none;stroke-width:0.264583"
         d="m 161.24791,136.73663 c 0,5.30818 -4.30092,9.6067 -9.61206,9.6067 -5.31114,0 -9.62206,-4.29852 -9.62206,-9.6067 0,-5.30818 4.31092,-9.6167 9.62206,-9.6167 5.31114,0 9.61206,4.30852 9.61206,9.6167 z"
         id="path76" /><path
         style="fill:#f9f9fb;fill-opacity:1;fill-rule:evenodd;stroke:none;stroke-width:0.264583"
         d="m 161.10788,136.73663 c 0,5.21821 -4.24091,9.45675 -9.47203,9.45675 -5.23112,0 -9.47203,-4.23854 -9.47203,-9.45675 0,-5.22821 4.24091,-9.46676 9.47203,-9.46676 5.23112,0 9.47203,4.23855 9.47203,9.46676 z"
         id="path77" /><path
         style="fill:#f3f3f9;fill-opacity:1;fill-rule:evenodd;stroke:none;stroke-width:0.264583"
         d="m 160.94785,136.73663 c 0,5.13823 -4.1709,9.30681 -9.312,9.30681 -5.1511,0 -9.322,-4.16858 -9.322,-9.30681 0,-5.14824 4.1709,-9.31681 9.322,-9.31681 5.1411,0 9.312,4.16857 9.312,9.31681 z"
         id="path78" /><path
         style="fill:#edeef3;fill-opacity:1;fill-rule:evenodd;stroke:none;stroke-width:0.264583"
         d="m 160.79781,136.73663 c 0,5.05826 -4.10087,9.15686 -9.16196,9.15686 -5.06108,0 -9.17197,-4.0986 -9.17197,-9.15686 0,-5.06826 4.11089,-9.16686 9.17197,-9.16686 5.06109,0 9.16196,4.0986 9.16196,9.16686 z"
         id="path79" /><path
         style="fill:#e8eaf1;fill-opacity:1;fill-rule:evenodd;stroke:none;stroke-width:0.264583"
         d="m 160.64778,136.73663 c 0,4.97829 -4.03086,9.00691 -9.01193,9.00691 -4.98107,0 -9.02193,-4.02862 -9.02193,-9.00691 0,-4.9783 4.04086,-9.01691 9.02193,-9.01691 4.98107,0 9.01193,4.03861 9.01193,9.01691 z"
         id="path80" /><path
         style="fill:#e1e3ee;fill-opacity:1;fill-rule:evenodd;stroke:none;stroke-width:0.264583"
         d="m 160.49775,136.73663 c 0,4.88832 -3.97085,8.85696 -8.8619,8.85696 -4.90105,0 -8.8719,-3.96864 -8.8719,-8.85696 0,-4.89832 3.97085,-8.86696 8.8719,-8.86696 4.89105,0 8.8619,3.96864 8.8619,8.86696 z"
         id="path81" /><path
         style="fill:#dcdfec;fill-opacity:1;fill-rule:evenodd;stroke:none;stroke-width:0.264583"
         d="m 160.34772,136.73663 c 0,4.80835 -3.90084,8.70701 -8.71187,8.70701 -4.81103,0 -8.71187,-3.89866 -8.71187,-8.70701 0,-4.81835 3.90084,-8.71701 8.71187,-8.71701 4.81103,0 8.71187,3.89866 8.71187,8.71701 z"
         id="path82" /><path
         style="fill:#d6d8e6;fill-opacity:1;fill-rule:evenodd;stroke:none;stroke-width:0.264583"
         d="m 160.19769,136.73663 c 0,4.72838 -3.83082,8.55706 -8.56184,8.55706 -4.73101,0 -8.57184,-3.82868 -8.57184,-8.55706 0,-4.72838 3.84083,-8.56706 8.57184,-8.56706 4.73102,0 8.56184,3.83868 8.56184,8.56706 z"
         id="path83" /><path
         style="fill:#d1d4e4;fill-opacity:1;fill-rule:evenodd;stroke:none;stroke-width:0.264583"
         d="m 160.04765,136.73663 c 0,4.63841 -3.7608,8.40711 -8.4118,8.40711 -4.651,0 -8.42181,-3.7687 -8.42181,-8.40711 0,-4.64841 3.77081,-8.41712 8.42181,-8.41712 4.651,0 8.4118,3.76871 8.4118,8.41712 z"
         id="path84" /><path
         style="fill:#cbcee0;fill-opacity:1;fill-rule:evenodd;stroke:none;stroke-width:0.264583"
         d="m 159.89762,136.73663 c 0,4.55843 -3.70079,8.25716 -8.26177,8.25716 -4.56098,0 -8.26177,-3.69873 -8.26177,-8.25716 0,-4.56844 3.70079,-8.26717 8.26177,-8.26717 4.56098,0 8.26177,3.69873 8.26177,8.26717 z"
         id="path85" /><path
         style="fill:#c0c4d9;fill-opacity:1;fill-rule:evenodd;stroke:none;stroke-width:0.264583"
         d="m 159.59756,136.73663 c 0,4.38849 -3.56077,7.95727 -7.96171,7.95727 -4.40094,0 -7.96171,-3.56878 -7.96171,-7.95727 0,-4.39849 3.56077,-7.96727 7.96171,-7.96727 4.40094,0 7.96171,3.56878 7.96171,7.96727 z"
         id="path86" /><path
         style="fill:#bbbfd5;fill-opacity:1;fill-rule:evenodd;stroke:none;stroke-width:0.264583"
         d="m 159.44753,136.73663 c 0,4.30852 -3.50076,7.80732 -7.81168,7.80732 -4.32093,0 -7.81167,-3.4988 -7.81167,-7.80732 0,-4.31852 3.49074,-7.81732 7.81167,-7.81732 4.31092,0 7.81168,3.4988 7.81168,7.81732 z"
         id="path87" /><path
         style="fill:#b3bad1;fill-opacity:1;fill-rule:evenodd;stroke:none;stroke-width:0.264583"
         d="m 159.29749,136.73663 c 0,4.22855 -3.43073,7.65737 -7.66164,7.65737 -4.23091,0 -7.66164,-3.42882 -7.66164,-7.65737 0,-4.23855 3.43073,-7.66737 7.66164,-7.66737 4.23091,0 7.66164,3.42882 7.66164,7.66737 z"
         id="path88" /><path
         style="fill:#acb3cb;fill-opacity:1;fill-rule:evenodd;stroke:none;stroke-width:0.264583"
         d="m 159.14746,136.73663 c 0,4.13858 -3.36072,7.50742 -7.51161,7.50742 -4.15089,0 -7.51161,-3.36884 -7.51161,-7.50742 0,-4.14858 3.36072,-7.51742 7.51161,-7.51742 4.15089,0 7.51161,3.36884 7.51161,7.51742 z"
         id="path89" /><path
         style="fill:#a9afc9;fill-opacity:1;fill-rule:evenodd;stroke:none;stroke-width:0.264583"
         d="m 160.18768,136.13683 c 0,4.06861 -3.3007,7.36748 -7.37158,7.36748 -4.06087,0 -7.36157,-3.29887 -7.36157,-7.36748 0,-4.05861 3.3007,-7.35747 7.36157,-7.35747 4.07088,0 7.37158,3.29886 7.37158,7.35747 z"
         id="path90" /><path
         style="fill:#a3aac6;fill-opacity:1;fill-rule:evenodd;stroke:none;stroke-width:0.264583"
         d="m 158.84739,136.73663 c 0,3.97863 -3.23069,7.20753 -7.21154,7.20753 -3.98085,0 -7.21155,-3.2289 -7.21155,-7.20753 0,-3.98863 3.2307,-7.21753 7.21155,-7.21753 3.98085,0 7.21154,3.2289 7.21154,7.21753 z"
         id="path91" /><path
         style="fill:#9ca5c0;fill-opacity:1;fill-rule:evenodd;stroke:none;stroke-width:0.264583"
         d="m 158.69736,136.73663 c 0,3.89866 -3.16067,7.05758 -7.06151,7.05758 -3.90084,0 -7.06151,-3.15892 -7.06151,-7.05758 0,-3.89867 3.16067,-7.06758 7.06151,-7.06758 3.90084,0 7.06151,3.16891 7.06151,7.06758 z"
         id="path92" /><path
         style="fill:#98a1be;fill-opacity:1;fill-rule:evenodd;stroke:none;stroke-width:0.264583"
         d="m 158.54733,136.73663 c 0,3.80869 -3.09066,6.90763 -6.91148,6.90763 -3.82082,0 -6.91148,-3.09894 -6.91148,-6.90763 0,-3.81869 3.09066,-6.90763 6.91148,-6.90763 3.82082,0 6.91148,3.08894 6.91148,6.90763 z"
         id="path93" /><path
         style="fill:#929bb8;fill-opacity:1;fill-rule:evenodd;stroke:none;stroke-width:0.264583"
         d="m 158.3973,136.73663 c 0,3.72872 -3.03065,6.75768 -6.76145,6.75768 -3.7408,0 -6.76145,-3.02896 -6.76145,-6.75768 0,-3.73872 3.02065,-6.75769 6.76145,-6.75769 3.7308,0 6.76145,3.01897 6.76145,6.75769 z"
         id="path94" /><path
         style="fill:#8c95b4;fill-opacity:1;fill-rule:evenodd;stroke:none;stroke-width:0.264583"
         d="m 158.24727,136.73663 c 0,3.64875 -2.96064,6.60773 -6.61142,6.60773 -3.65078,0 -6.61142,-2.95898 -6.61142,-6.60773 0,-3.64875 2.96064,-6.61773 6.61142,-6.61773 3.65078,0 6.61142,2.96898 6.61142,6.61773 z"
         id="path95" /><path
         style="fill:#8590b1;fill-opacity:1;fill-rule:evenodd;stroke:none;stroke-width:0.264583"
         d="m 158.09723,136.73663 c 0,3.55878 -2.89062,6.45778 -6.46138,6.45778 -3.57077,0 -6.46139,-2.899 -6.46139,-6.45778 0,-3.56878 2.89062,-6.45779 6.46139,-6.45779 3.57076,0 6.46138,2.88901 6.46138,6.45779 z"
         id="path96" /><path
         style="fill:#818bab;fill-opacity:1;fill-rule:evenodd;stroke:none;stroke-width:0.264583"
         d="m 157.9472,136.73663 c 0,3.4788 -2.8306,6.30783 -6.31135,6.30783 -3.49075,0 -6.31135,-2.82903 -6.31135,-6.30783 0,-3.48881 2.8206,-6.30784 6.31135,-6.30784 3.48075,0 6.31135,2.81903 6.31135,6.30784 z"
         id="path97" /><path
         style="fill:#7a87a8;fill-opacity:1;fill-rule:evenodd;stroke:none;stroke-width:0.264583"
         d="m 157.79717,136.73663 c 0,3.39883 -2.76059,6.15789 -6.16132,6.15789 -3.40073,0 -6.16132,-2.75906 -6.16132,-6.15789 0,-3.40883 2.76059,-6.15789 6.16132,-6.15789 3.40073,0 6.16132,2.74906 6.16132,6.15789 z"
         id="path98" /><path
         style="fill:#7482a4;fill-opacity:1;fill-rule:evenodd;stroke:none;stroke-width:0.264583"
         d="m 157.64714,136.73663 c 0,3.30886 -2.69058,6.00794 -6.01129,6.00794 -3.32071,0 -6.01129,-2.69908 -6.01129,-6.00794 0,-3.31886 2.69058,-6.00794 6.01129,-6.00794 3.32071,0 6.01129,2.68908 6.01129,6.00794 z"
         id="path99" /><path
         style="fill:#6f7ea1;fill-opacity:1;fill-rule:evenodd;stroke:none;stroke-width:0.264583"
         d="m 157.49711,136.73663 c 0,3.22889 -2.63057,5.85799 -5.86126,5.85799 -3.2407,0 -5.86126,-2.6291 -5.86126,-5.85799 0,-3.23889 2.62056,-5.85799 5.86126,-5.85799 3.24069,0 5.86126,2.6191 5.86126,5.85799 z"
         id="path100" /><path
         style="fill:#6a799d;fill-opacity:1;fill-rule:evenodd;stroke:none;stroke-width:0.264583"
         d="m 157.34708,136.73663 c 0,3.14892 -2.56056,5.70804 -5.71123,5.70804 -3.15068,0 -5.71122,-2.55912 -5.71122,-5.70804 0,-3.15892 2.56054,-5.70805 5.71122,-5.70805 3.15067,0 5.71123,2.54913 5.71123,5.70805 z"
         id="path101" /><path
         style="fill:#66759a;fill-opacity:1;fill-rule:evenodd;stroke:none;stroke-width:0.264583"
         d="m 157.19704,136.73663 c 0,3.06894 -2.49053,5.55809 -5.56119,5.55809 -3.07066,0 -5.56119,-2.48915 -5.56119,-5.55809 0,-3.06895 2.49053,-5.5581 5.56119,-5.5581 3.07066,0 5.56119,2.48915 5.56119,5.5581 z"
         id="path102" /><path
         style="fill:#617095;fill-opacity:1;fill-rule:evenodd;stroke:none;stroke-width:0.264583"
         d="m 156.44688,137.52636 c 0,2.97897 -2.42052,5.39814 -5.40116,5.39814 -2.99064,0 -5.41116,-2.41917 -5.41116,-5.39814 0,-2.98898 2.42052,-5.40815 5.41116,-5.40815 2.98064,0 5.40116,2.41917 5.40116,5.40815 z"
         id="path103" /><path
         style="fill:#5c6c92;fill-opacity:1;fill-rule:evenodd;stroke:none;stroke-width:0.264583"
         d="m 156.89698,136.73663 c 0,2.899 -2.36051,5.2482 -5.26113,5.2482 -2.90062,0 -5.26113,-2.3492 -5.26113,-5.2482 0,-2.90901 2.36051,-5.2582 5.26113,-5.2582 2.90062,0 5.26113,2.34919 5.26113,5.2582 z"
         id="path104" /><path
         style="fill:#56678f;fill-opacity:1;fill-rule:evenodd;stroke:none;stroke-width:0.264583"
         d="m 156.74694,136.73663 c 0,2.81903 -2.29049,5.09825 -5.11109,5.09825 -2.82061,0 -5.1111,-2.27922 -5.1111,-5.09825 0,-2.82903 2.29049,-5.10825 5.1111,-5.10825 2.8206,0 5.11109,2.27922 5.11109,5.10825 z"
         id="path105" /><path
         style="fill:#51638a;fill-opacity:1;fill-rule:evenodd;stroke:none;stroke-width:0.264583"
         d="m 156.59691,136.73663 c 0,2.72906 -2.22047,4.9483 -4.96106,4.9483 -2.74059,0 -4.96106,-2.21924 -4.96106,-4.9483 0,-2.73906 2.22047,-4.9583 4.96106,-4.9583 2.74059,0 4.96106,2.21924 4.96106,4.9583 z"
         id="path106" /><path
         style="fill:#51638a;fill-opacity:1;fill-rule:evenodd;stroke:none;stroke-width:0.264583"
         d="m 156.44688,136.73663 c 0,2.64909 -2.15046,4.79835 -4.81103,4.79835 -2.66057,0 -4.81103,-2.14926 -4.81103,-4.79835 0,-2.65909 2.15046,-4.80835 4.81103,-4.80835 2.66057,0 4.81103,2.14926 4.81103,4.80835 z"
         id="path107" /><path
         style="fill:#4d5e86;fill-opacity:1;fill-rule:evenodd;stroke:none;stroke-width:0.264583"
         d="m 156.17682,136.73663 c 0,2.49914 -2.03043,4.53844 -4.54097,4.53844 -2.51054,0 -4.54097,-2.0393 -4.54097,-4.53844 0,-2.50914 2.03043,-4.54844 4.54097,-4.54844 2.51054,0 4.54097,2.0393 4.54097,4.54844 z"
         id="path108" /><path
         style="fill:#475a83;fill-opacity:1;fill-rule:evenodd;stroke:none;stroke-width:0.264583"
         d="m 155.90677,136.73663 c 0,2.35919 -1.91041,4.26853 -4.27092,4.26853 -2.36051,0 -4.27092,-1.90934 -4.27092,-4.26853 0,-2.35919 1.91041,-4.27854 4.27092,-4.27854 2.36051,0 4.27092,1.91935 4.27092,4.27854 z"
         id="path109" /><path
         style="fill:#43567f;fill-opacity:1;fill-rule:evenodd;stroke:none;stroke-width:0.264583"
         d="m 155.97678,137.87624 c 0,2.21924 -1.80038,4.00862 -4.01086,4.00862 -2.21047,0 -4.00086,-1.78938 -4.00086,-4.00862 0,-2.20925 1.79039,-3.99863 4.00086,-3.99863 2.21048,0 4.01086,1.78938 4.01086,3.99863 z"
         id="path110" /><path
         style="fill:#3d537d;fill-opacity:1;fill-rule:evenodd;stroke:none;stroke-width:0.264583"
         d="m 153.89633,135.9469 c 0,2.05929 -1.68036,3.73872 -3.7408,3.73872 -2.07044,0 -3.7408,-1.67943 -3.7408,-3.73872 0,-2.06929 1.67036,-3.73872 3.7408,-3.73872 2.06044,0 3.7408,1.66943 3.7408,3.73872 z"
         id="path111" /><path
         style="fill:#3a4f79;fill-opacity:1;fill-rule:evenodd;stroke:none;stroke-width:0.264583"
         d="m 155.10659,136.73663 c 0,1.90934 -1.55033,3.46881 -3.47074,3.46881 -1.92041,0 -3.47074,-1.55947 -3.47074,-3.46881 0,-1.91934 1.55033,-3.47881 3.47074,-3.47881 1.92041,0 3.47074,1.55947 3.47074,3.47881 z"
         id="path112" /><path
         style="fill:#354c76;fill-opacity:1;fill-rule:evenodd;stroke:none;stroke-width:0.264583"
         d="m 154.83654,136.73663 c 0,1.76939 -1.43031,3.1989 -3.20069,3.1989 -1.77038,0 -3.21069,-1.42951 -3.21069,-3.1989 0,-1.7694 1.44031,-3.2089 3.21069,-3.2089 1.77038,0 3.20069,1.4395 3.20069,3.2089 z"
         id="path113" /><path
         style="fill:#304873;fill-opacity:1;fill-rule:evenodd;stroke:none;stroke-width:0.264583"
         d="m 156.5469,135.44707 c 0,1.61944 -1.31028,2.93899 -2.94063,2.93899 -1.62034,0 -2.93063,-1.31955 -2.93063,-2.93899 0,-1.61945 1.31029,-2.93899 2.93063,-2.93899 1.63035,0 2.94063,1.31954 2.94063,2.93899 z"
         id="path114" /><path
         style="fill:#2b4571;fill-opacity:1;fill-rule:evenodd;stroke:none;stroke-width:0.264583"
         d="m 154.30642,136.73663 c 0,1.46949 -1.20026,2.66908 -2.67057,2.66908 -1.48032,0 -2.67057,-1.19959 -2.67057,-2.66908 0,-1.4795 1.19025,-2.66909 2.67057,-2.66909 1.47031,0 2.67057,1.18959 2.67057,2.66909 z"
         id="path115" /><path
         style="fill:#27426e;fill-opacity:1;fill-rule:evenodd;stroke:none;stroke-width:0.264583"
         d="m 154.03637,136.73663 c 0,1.31954 -1.07023,2.39917 -2.40052,2.39917 -1.33028,0 -2.40051,-1.07963 -2.40051,-2.39917 0,-1.32955 1.07023,-2.40918 2.40051,-2.40918 1.33029,0 2.40052,1.07963 2.40052,2.40918 z"
         id="path116" /><path
         style="fill:none;stroke:#fefefe;stroke-width:0.350075px;stroke-linecap:butt;stroke-linejoin:miter;stroke-miterlimit:4;stroke-dasharray:none;stroke-opacity:1"
         d="m 137.07273,135.3671 c 2.60056,-2.84903 7.37158,-6.07792 13.22283,-8.68702 2.82061,-1.24957 5.5812,-2.21924 8.12174,-2.88901"
         id="path117" /><path
         style="fill:none;stroke:#fefefe;stroke-width:0.350075px;stroke-linecap:butt;stroke-linejoin:miter;stroke-miterlimit:4;stroke-dasharray:none;stroke-opacity:1"
         d="m 165.54883,132.27816 c -2.64056,2.0393 -6.14131,4.10859 -10.14217,5.88798 -7.03151,3.12892 -13.69294,4.49845 -17.41373,3.84868"
         id="path118" /><path
         style="fill:none;stroke:#fefefe;stroke-width:0.700151px;stroke-linecap:butt;stroke-linejoin:miter;stroke-miterlimit:4;stroke-dasharray:none;stroke-opacity:1"
         d="m 148.5952,122.43153 c -2.82061,2.25923 -5.44117,6.83766 -6.79146,12.45573 -1.14024,4.71838 -1.14024,9.18685 -0.24005,12.44573"
         id="path119" /><path
         style="fill:none;stroke:#fefefe;stroke-width:0.700151px;stroke-linecap:butt;stroke-linejoin:miter;stroke-miterlimit:4;stroke-dasharray:none;stroke-opacity:1"
         d="m 161.648,147.37298 c -3.55077,-0.04 -8.22177,-1.66943 -12.67272,-4.71838 -6.01129,-4.0986 -9.94213,-9.59671 -9.88212,-13.44539"
         id="path120" /><path
         style="fill:#fefefe;fill-opacity:1;fill-rule:evenodd;stroke:none;stroke-width:0.264583"
         d="m 153.42623,143.91416 c 0,1.08963 -0.88018,1.96933 -1.96042,1.96933 -1.08023,0 -1.96042,-0.8797 -1.96042,-1.96933 0,-1.07962 0.88019,-1.95932 1.96042,-1.95932 1.08024,0 1.96042,0.8797 1.96042,1.95932 z"
         id="path121" /><path
         style="fill:none;stroke:#fefefe;stroke-width:0.350075px;stroke-linecap:butt;stroke-linejoin:miter;stroke-miterlimit:4;stroke-dasharray:none;stroke-opacity:1"
         d="m 142.62392,125.22058 c -1.11024,3.42882 -0.86019,8.61704 0.9602,14.00519 1.94042,5.75803 5.18112,10.25648 8.34179,12.11585"
         id="path122" /><text
         xml:space="preserve"
         style="font-style:normal;font-variant:normal;font-weight:normal;font-stretch:normal;font-size:7.7611px;font-family:'Open Sans';-inkscape-font-specification:'Open Sans, Normal';font-variant-ligatures:normal;font-variant-caps:normal;font-variant-numeric:normal;font-variant-east-asian:normal;text-align:center;text-anchor:middle;fill:#1a3f66;fill-opacity:1;stroke-width:0.264999"
         x="83.934784"
         y="152.93094"
         id="text1"><tspan
           sodipodi:role="line"
           id="tspan1"
           x="83.934784"
           y="152.93094"
           style="font-style:normal;font-variant:normal;font-weight:normal;font-stretch:normal;font-size:7.7611px;font-family:'Noto Sans';-inkscape-font-specification:'Noto Sans';font-variant-ligatures:normal;font-variant-caps:normal;font-variant-numeric:normal;font-variant-east-asian:normal;fill:#1a3f66;fill-opacity:1;stroke-width:0.264999">Institute of Power Engineering</tspan></text></g><g
       id="surface1"
       transform="matrix(0.63300829,0,0,0.63300829,143.22265,-370.33404)"><path
         style="fill:#00008a;fill-opacity:1;fill-rule:nonzero;stroke:none"
         d="m 74.269531,801.41406 -19.558593,3.44922 v -17.57422 l -19.558594,-19.5625 22.511718,0.004 16.605469,16.60547 v 17.07812"
         id="path1-4" /><path
         style="fill:#00008a;fill-opacity:1;fill-rule:nonzero;stroke:none"
         d="m 17.574219,790.73828 19.5625,-3.44922 v 17.57422 l 19.558593,19.5625 -22.515624,-0.004 -16.605469,-16.60156 v -17.08203"
         id="path2" /><path
         style="fill:#00008a;fill-opacity:1;fill-rule:nonzero;stroke:none"
         d="m 94.25,775.48828 c 0,-1.08203 -0.167969,-1.97656 -0.507812,-2.67969 -0.339844,-0.70312 -0.835938,-1.22656 -1.496094,-1.57422 -0.65625,-0.34375 -1.46875,-0.51562 -2.433594,-0.51562 h -1.820312 v 9.75391 h 1.488281 c 1.601562,0 2.800781,-0.41407 3.585937,-1.24219 0.789063,-0.82813 1.183594,-2.07422 1.183594,-3.74219 z m 2.640625,-0.0781 c 0,1.57812 -0.292969,2.89843 -0.878906,3.96875 -0.589844,1.0664 -1.425781,1.87109 -2.515625,2.40234 -1.085938,0.53516 -2.386719,0.80469 -3.898438,0.80469 H 85.453125 V 768.625 h 4.515625 c 1.433594,0 2.667969,0.26172 3.703125,0.78125 1.039063,0.52344 1.832031,1.28125 2.386719,2.27734 0.554687,1 0.832031,2.23828 0.832031,3.72657"
         id="path3" /><path
         style="fill:#00008a;fill-opacity:1;fill-rule:nonzero;stroke:none"
         d="m 104.62891,771.79297 c 0.19531,0 0.40625,0.008 0.63672,0.0273 0.22656,0.0195 0.41406,0.0508 0.55468,0.0899 l -0.2539,2.30859 c -0.15625,-0.0273 -0.33594,-0.0547 -0.53516,-0.0781 -0.20312,-0.0273 -0.42187,-0.0391 -0.65625,-0.0391 -0.33984,0 -0.67187,0.0586 -0.99609,0.17578 -0.32813,0.11719 -0.625,0.29688 -0.89844,0.54688 -0.27344,0.24609 -0.49219,0.55469 -0.64844,0.92578 -0.15625,0.375 -0.23437,0.82031 -0.23437,1.33984 v 5.4961 h -2.480472 v -10.59766 h 1.914062 l 0.35156,1.83594 H 101.5 c 0.21094,-0.375 0.46875,-0.72266 0.78516,-1.03516 0.3125,-0.3125 0.66406,-0.55469 1.0625,-0.73047 0.39843,-0.17968 0.82422,-0.26562 1.28125,-0.26562"
         id="path4" /><path
         style="fill:#00008a;fill-opacity:1;fill-rule:nonzero;stroke:none"
         d="m 111.5,773.62891 c -0.67969,0 -1.22266,0.21484 -1.63281,0.64843 -0.41016,0.42969 -0.64844,1.04688 -0.71485,1.85547 h 4.51954 c 0,-0.49609 -0.0781,-0.92969 -0.23829,-1.30078 -0.15625,-0.37109 -0.39453,-0.66406 -0.71093,-0.87891 -0.32032,-0.21484 -0.72657,-0.32421 -1.22266,-0.32421 z m -0.0391,-1.83594 c 0.94922,0 1.77344,0.1875 2.46484,0.5664 0.6875,0.37891 1.21875,0.92579 1.58985,1.64454 0.375,0.71484 0.55859,1.58203 0.55859,2.59765 v 1.26953 h -6.98047 c 0.0273,0.95313 0.29688,1.69141 0.80078,2.21094 0.51172,0.51953 1.23438,0.78125 2.17188,0.78125 0.66406,0 1.26562,-0.0625 1.79687,-0.19531 0.53516,-0.12891 1.08203,-0.32031 1.64453,-0.56641 v 1.95313 c -0.52343,0.25 -1.0625,0.43359 -1.62109,0.55078 -0.5625,0.11719 -1.24219,0.17578 -2.03516,0.17578 -1.03125,0 -1.94531,-0.19922 -2.74609,-0.59766 -0.80078,-0.39843 -1.42578,-1 -1.87891,-1.80859 -0.44922,-0.80859 -0.67187,-1.8125 -0.67187,-3.01172 0,-1.21094 0.20312,-2.23047 0.61719,-3.05859 0.40625,-0.82813 0.98046,-1.45313 1.71875,-1.875 0.73437,-0.42578 1.59375,-0.63672 2.57031,-0.63672"
         id="path5" /><path
         style="fill:#00008a;fill-opacity:1;fill-rule:nonzero;stroke:none"
         d="m 125.78516,779.53516 c 0,0.67578 -0.16407,1.25781 -0.48828,1.73828 -0.32813,0.48437 -0.8125,0.85547 -1.44922,1.11718 -0.63672,0.25782 -1.4336,0.39063 -2.38282,0.39063 -0.74218,0 -1.39843,-0.0547 -1.95703,-0.15625 -0.5625,-0.10547 -1.08203,-0.26953 -1.5625,-0.48828 v -2.11328 c 0.51953,0.24609 1.09766,0.45312 1.73047,0.61718 0.63281,0.16016 1.21485,0.24219 1.75,0.24219 0.70313,0 1.21094,-0.10156 1.52344,-0.3125 0.3125,-0.20703 0.46875,-0.48828 0.46875,-0.83984 0,-0.22266 -0.0703,-0.42188 -0.20313,-0.59766 -0.14062,-0.17578 -0.38671,-0.35547 -0.74609,-0.53515 -0.35937,-0.1836 -0.86328,-0.40625 -1.51562,-0.66797 -0.64844,-0.25782 -1.19922,-0.52344 -1.64844,-0.78907 -0.45313,-0.26953 -0.79297,-0.59375 -1.02735,-0.97656 -0.23437,-0.38672 -0.35156,-0.86328 -0.35156,-1.4375 0,-0.95312 0.37891,-1.67969 1.13281,-2.17969 0.75391,-0.5039 1.75391,-0.7539 2.99219,-0.7539 0.66406,0 1.28516,0.0664 1.86719,0.19531 0.57812,0.12891 1.14844,0.32422 1.71094,0.58594 l -0.74219,1.76172 c -0.48438,-0.21094 -0.98047,-0.38282 -1.48828,-0.51953 -0.50781,-0.13672 -0.97656,-0.20704 -1.40625,-0.20704 -0.55078,0 -0.96875,0.0859 -1.26172,0.25391 -0.29297,0.17188 -0.44141,0.40625 -0.44141,0.70703 0,0.23438 0.0703,0.4336 0.21485,0.59375 0.14453,0.16406 0.39843,0.33203 0.76172,0.5 0.36718,0.16797 0.875,0.37891 1.52734,0.625 0.63672,0.2461 1.18359,0.50781 1.63281,0.78125 0.44922,0.27344 0.78906,0.60547 1.01563,0.98828 0.23047,0.38282 0.34375,0.875 0.34375,1.47657"
         id="path6" /><path
         style="fill:#00008a;fill-opacity:1;fill-rule:nonzero;stroke:none"
         d="m 132.21875,780.76562 c 0.91406,0 1.55859,-0.25781 1.9375,-0.77343 0.375,-0.51172 0.56641,-1.29688 0.56641,-2.35547 v -0.3125 c 0,-1.13281 -0.17969,-2.00391 -0.53907,-2.60938 -0.35937,-0.60547 -1.01953,-0.91015 -1.98437,-0.91015 -0.74219,0 -1.3125,0.3125 -1.71094,0.92968 -0.39453,0.6211 -0.59766,1.48829 -0.59766,2.60938 0,1.12109 0.20313,1.97266 0.59766,2.55078 0.39844,0.58203 0.97656,0.87109 1.73047,0.87109 z m -0.74219,2.01563 c -1.22656,0 -2.21875,-0.46484 -2.98047,-1.39063 -0.76562,-0.92578 -1.14453,-2.28515 -1.14453,-4.08593 0,-1.82422 0.38282,-3.19922 1.15235,-4.125 0.76953,-0.92578 1.78125,-1.38672 3.03125,-1.38672 0.52343,0 0.97656,0.0664 1.35937,0.20703 0.38281,0.13672 0.71875,0.32031 1.00391,0.55469 0.28906,0.23437 0.53125,0.49609 0.72656,0.78125 h 0.0977 c -0.0273,-0.20703 -0.0586,-0.50391 -0.0898,-0.88672 -0.0312,-0.38672 -0.0469,-0.72656 -0.0469,-1.02735 v -3.69531 h 2.5039 v 14.85938 h -1.9375 l -0.46875,-1.39063 h -0.0977 c -0.19532,0.28906 -0.4336,0.55078 -0.71485,0.79297 -0.28125,0.24219 -0.61718,0.43359 -1.01562,0.57813 -0.39844,0.14062 -0.85938,0.21484 -1.37891,0.21484"
         id="path7" /><path
         style="fill:#00008a;fill-opacity:1;fill-rule:nonzero;stroke:none"
         d="m 156.34375,771.79297 c 1.19922,0 2.13281,0.30469 2.79687,0.91797 0.66407,0.61328 0.9961,1.60156 0.9961,2.97265 v 6.89844 h -2.46094 v -6.39062 c 0,-0.8086 -0.16016,-1.41016 -0.48047,-1.8086 -0.32031,-0.39844 -0.8125,-0.59765 -1.47656,-0.59765 -0.99219,0 -1.66797,0.3125 -2.03516,0.9375 -0.36328,0.6289 -0.54297,1.52734 -0.54297,2.69921 v 5.16016 h -2.48437 v -10.59375 h 1.91406 l 0.35547,1.42578 h 0.11328 c 0.23438,-0.36328 0.52344,-0.66797 0.86328,-0.91015 0.33594,-0.23829 0.71094,-0.41797 1.1211,-0.53516 0.41015,-0.11719 0.85156,-0.17578 1.32031,-0.17578"
         id="path8" /><path
         style="fill:#00008a;fill-opacity:1;fill-rule:nonzero;stroke:none"
         d="m 144.05469,773.62891 c -0.67578,0 -1.22266,0.21484 -1.63282,0.64843 -0.41015,0.42969 -0.64843,1.04688 -0.71093,1.85547 h 4.51172 c 0,-0.49609 -0.0781,-0.92969 -0.23438,-1.30078 -0.15234,-0.37109 -0.39062,-0.66406 -0.71094,-0.87891 -0.32031,-0.21484 -0.72656,-0.32421 -1.22265,-0.32421 z m -0.0391,-1.83594 c 0.95313,0 1.77344,0.1875 2.46094,0.5664 0.69141,0.37891 1.22266,0.92579 1.59375,1.64454 0.3711,0.71484 0.5586,1.58203 0.5586,2.59765 v 1.26953 h -6.98047 c 0.0273,0.95313 0.29297,1.69141 0.80078,2.21094 0.51172,0.51953 1.23437,0.78125 2.17187,0.78125 0.66407,0 1.26563,-0.0625 1.80078,-0.19531 0.53125,-0.12891 1.08204,-0.32031 1.64063,-0.56641 v 1.95313 c -0.52344,0.25 -1.0625,0.43359 -1.625,0.55078 -0.55859,0.11719 -1.23828,0.17578 -2.03125,0.17578 -1.02734,0 -1.94531,-0.19922 -2.74609,-0.59766 -0.80079,-0.39843 -1.42969,-1 -1.87891,-1.80859 -0.44922,-0.80859 -0.67188,-1.8125 -0.67188,-3.01172 0,-1.21094 0.20313,-2.23047 0.61329,-3.05859 0.41406,-0.82813 0.98437,-1.45313 1.72265,-1.875 0.73438,-0.42578 1.59375,-0.63672 2.57031,-0.63672"
         id="path9" /><path
         style="fill:#00008a;fill-opacity:1;fill-rule:nonzero;stroke:none"
         d="m 104.79297,792.71484 c 1.19922,0 2.13281,0.3086 2.79687,0.91797 0.66407,0.61328 0.9961,1.60547 0.9961,2.97266 v 6.90234 h -2.46485 v -6.39453 c 0,-0.80859 -0.15625,-1.41016 -0.47656,-1.80859 -0.32031,-0.39453 -0.8125,-0.59375 -1.47656,-0.59375 -0.99219,0 -1.66797,0.3125 -2.03516,0.9375 -0.36328,0.625 -0.54687,1.52343 -0.54687,2.69922 v 5.16015 h -2.484378 v -10.59765 h 1.917968 l 0.35156,1.42968 h 0.11719 c 0.23438,-0.36718 0.52344,-0.66797 0.85938,-0.91015 0.33984,-0.24219 0.71484,-0.42188 1.125,-0.53907 0.41015,-0.11718 0.85156,-0.17578 1.32031,-0.17578"
         id="path10" /><path
         style="fill:#00008a;fill-opacity:1;fill-rule:nonzero;stroke:none"
         d="m 113.53906,792.91016 v 10.59765 h -2.48047 v -10.59765 z m -1.21093,-4.10547 c 0.36328,0 0.68359,0.0976 0.95703,0.29297 0.27343,0.19531 0.41015,0.53515 0.41015,1.01953 0,0.46875 -0.13672,0.80468 -0.41015,1.0039 -0.27344,0.20313 -0.59375,0.30469 -0.95703,0.30469 -0.39063,0 -0.71875,-0.10156 -0.98438,-0.30469 -0.26953,-0.19922 -0.40234,-0.53515 -0.40234,-1.0039 0,-0.48438 0.13281,-0.82422 0.40234,-1.01953 0.26563,-0.19532 0.59375,-0.29297 0.98438,-0.29297"
         id="path11" /><path
         style="fill:#00008a;fill-opacity:1;fill-rule:nonzero;stroke:none"
         d="m 158.48828,792.91016 v 10.59765 h -2.48437 v -10.59765 z m -1.21484,-4.10547 c 0.36718,0 0.6875,0.0976 0.96093,0.29297 0.27344,0.19531 0.41016,0.53515 0.41016,1.01953 0,0.46875 -0.13672,0.80468 -0.41016,1.0039 -0.27343,0.20313 -0.59375,0.30469 -0.96093,0.30469 -0.39063,0 -0.71875,-0.10156 -0.98438,-0.30469 -0.26953,-0.19922 -0.40234,-0.53515 -0.40234,-1.0039 0,-0.48438 0.13281,-0.82422 0.40234,-1.01953 0.26563,-0.19532 0.59375,-0.29297 0.98438,-0.29297"
         id="path12" /><path
         style="fill:#00008a;fill-opacity:1;fill-rule:nonzero;stroke:none"
         d="m 165.79297,801.72656 c 0.3125,0 0.61328,-0.0273 0.89844,-0.0859 0.28906,-0.0586 0.55468,-0.1289 0.80078,-0.20703 v 1.83985 c -0.25782,0.11718 -0.59766,0.21875 -1.01563,0.30078 -0.41797,0.0859 -0.85156,0.1289 -1.30859,0.1289 -0.60156,0 -1.14453,-0.10156 -1.63281,-0.30468 -0.48829,-0.19922 -0.87891,-0.55078 -1.17188,-1.04297 -0.29297,-0.4961 -0.44141,-1.1875 -0.44141,-2.07422 v -5.51172 h -1.42578 v -1.07812 l 1.5625,-0.85938 0.78516,-2.24609 h 1.54297 v 2.32422 h 3.00781 v 1.85937 h -3.00781 v 5.49219 c 0,0.49609 0.1289,0.86328 0.39062,1.10547 0.25782,0.24218 0.59766,0.35937 1.01563,0.35937"
         id="path13" /><path
         style="fill:#00008a;fill-opacity:1;fill-rule:nonzero;stroke:none"
         d="m 119.07813,803.50781 -4.02735,-10.59765 h 2.6211 l 2.07031,6.25781 c 0.0781,0.18359 0.15625,0.40625 0.23437,0.67187 0.0781,0.26953 0.15235,0.53125 0.22266,0.78516 0.0742,0.25391 0.11719,0.47656 0.12891,0.67187 h 0.0781 c 0.0273,-0.19531 0.0742,-0.41796 0.14844,-0.67187 0.0703,-0.25391 0.15234,-0.51172 0.24219,-0.77344 0.0937,-0.26172 0.16406,-0.48828 0.21484,-0.68359 l 2.11328,-6.25781 h 2.61719 l -4.04688,10.59765 h -2.61718"
         id="path14" /><path
         style="fill:#00008a;fill-opacity:1;fill-rule:nonzero;stroke:none"
         d="m 131.39844,794.55469 c -0.67578,0 -1.22266,0.21484 -1.63282,0.64453 -0.41015,0.42969 -0.64843,1.04687 -0.71093,1.85547 h 4.51172 c 0,-0.49219 -0.0781,-0.92578 -0.23047,-1.30078 -0.15625,-0.3711 -0.39844,-0.66407 -0.71485,-0.87891 -0.32031,-0.21484 -0.72656,-0.32031 -1.22265,-0.32031 z m -0.0391,-1.83985 c 0.94922,0 1.77344,0.19141 2.46094,0.56641 0.69141,0.37891 1.22266,0.92578 1.59375,1.64453 0.3711,0.71484 0.5586,1.58203 0.5586,2.59766 v 1.27343 h -6.98047 c 0.0273,0.94922 0.29297,1.6875 0.80468,2.20704 0.50782,0.52343 1.23047,0.78125 2.16797,0.78125 0.66407,0 1.26563,-0.0625 1.80078,-0.19532 0.53125,-0.1289 1.08204,-0.3164 1.64063,-0.5664 v 1.95703 c -0.51953,0.24609 -1.0625,0.42969 -1.625,0.54687 -0.55859,0.11719 -1.23438,0.17578 -2.03125,0.17578 -1.02734,0 -1.94531,-0.19921 -2.74609,-0.59765 -0.80079,-0.39453 -1.42969,-1 -1.875,-1.8086 -0.45313,-0.80859 -0.67578,-1.80859 -0.67578,-3.00781 0,-1.21484 0.20312,-2.23437 0.61328,-3.0625 0.41015,-0.82812 0.98437,-1.45312 1.72265,-1.875 0.73438,-0.42578 1.59375,-0.63672 2.57031,-0.63672"
         id="path15" /><path
         style="fill:#00008a;fill-opacity:1;fill-rule:nonzero;stroke:none"
         d="m 143.51172,792.71484 c 0.1914,0 0.40625,0.0117 0.63281,0.0312 0.22656,0.0195 0.41406,0.0469 0.55859,0.0859 l -0.2539,2.30859 c -0.15625,-0.0273 -0.33594,-0.0508 -0.53906,-0.0781 -0.20313,-0.0273 -0.42188,-0.0391 -0.65235,-0.0391 -0.34375,0 -0.67187,0.0586 -1,0.17578 -0.32422,0.11719 -0.625,0.30078 -0.89844,0.54687 -0.27343,0.2461 -0.48828,0.5586 -0.64453,0.92969 -0.15625,0.37109 -0.23437,0.81641 -0.23437,1.33984 v 5.49219 h -2.48438 v -10.59765 h 1.91407 l 0.35546,1.83984 h 0.11719 c 0.20703,-0.37891 0.46875,-0.72266 0.78125,-1.03906 0.3125,-0.3125 0.66797,-0.55469 1.06641,-0.73047 0.39844,-0.17578 0.82422,-0.26563 1.28125,-0.26563"
         id="path16" /><path
         style="fill:#00008a;fill-opacity:1;fill-rule:nonzero;stroke:none"
         d="m 153.60156,800.45703 c 0,0.67969 -0.16406,1.25781 -0.48828,1.74219 -0.32812,0.48047 -0.80859,0.85156 -1.44531,1.11328 -0.64063,0.26172 -1.4375,0.39062 -2.38672,0.39062 -0.74219,0 -1.39453,-0.0508 -1.95703,-0.15625 -0.5586,-0.10546 -1.07813,-0.26562 -1.5625,-0.48828 v -2.11328 c 0.52344,0.25 1.09765,0.45313 1.73047,0.61719 0.63281,0.16406 1.21484,0.24219 1.75,0.24219 0.70312,0 1.21093,-0.10157 1.52343,-0.3125 0.3125,-0.20703 0.46875,-0.48828 0.46875,-0.83985 0,-0.22265 -0.0664,-0.41797 -0.20312,-0.59375 -0.13672,-0.17968 -0.38672,-0.35547 -0.74219,-0.53906 -0.35937,-0.18359 -0.86328,-0.40234 -1.51562,-0.66406 -0.65235,-0.26172 -1.20313,-0.52735 -1.65235,-0.79297 -0.44922,-0.26563 -0.79297,-0.59375 -1.02734,-0.97656 -0.23438,-0.38672 -0.35156,-0.86328 -0.35156,-1.4375 0,-0.95313 0.3789,-1.67969 1.13672,-2.17969 0.7539,-0.5 1.75,-0.75391 2.98828,-0.75391 0.66406,0 1.28906,0.0664 1.86718,0.19532 0.58204,0.13281 1.15235,0.32812 1.71094,0.58593 l -0.74219,1.76172 c -0.48046,-0.20703 -0.97656,-0.38281 -1.48437,-0.51953 -0.50781,-0.13672 -0.98047,-0.20312 -1.41016,-0.20312 -0.54687,0 -0.96484,0.082 -1.25781,0.2539 -0.29687,0.16797 -0.44141,0.40235 -0.44141,0.70313 0,0.23437 0.0703,0.43359 0.21485,0.59765 0.14453,0.16016 0.39844,0.32813 0.76172,0.4961 0.36328,0.17187 0.875,0.3789 1.52343,0.625 0.64063,0.25 1.1836,0.50781 1.63282,0.78515 0.44922,0.27344 0.78906,0.60157 1.01953,0.98438 0.22656,0.38672 0.33984,0.8789 0.33984,1.47656"
         id="path17" /><path
         style="fill:#00008a;fill-opacity:1;fill-rule:nonzero;stroke:none"
         d="m 96.632812,798.58203 c 0,0.96484 -0.207031,1.83203 -0.617187,2.60938 -0.410156,0.77343 -1.035156,1.38671 -1.867187,1.83593 -0.835938,0.44922 -1.890626,0.67578 -3.167969,0.67578 -1.8125,0 -3.1875,-0.47265 -4.125,-1.41796 -0.9375,-0.94532 -1.40625,-2.19141 -1.40625,-3.74219 v -8.9961 h 2.5 v 8.74219 c 0,1.13281 0.261719,1.96485 0.78125,2.49219 0.523437,0.52734 1.300781,0.78906 2.328125,0.78906 0.730468,0 1.320312,-0.12109 1.769531,-0.37109 0.449219,-0.2461 0.78125,-0.6211 0.996094,-1.1211 0.214843,-0.5039 0.324219,-1.10546 0.324219,-1.80859 v -8.72266 h 2.484374 v 9.03516"
         id="path18" /><path
         style="fill:#00008a;fill-opacity:1;fill-rule:nonzero;stroke:none"
         d="m 168.31641,792.91406 h 2.64062 l 2.10938,6.03906 c 0.0937,0.25 0.17578,0.5 0.2539,0.75391 0.0781,0.25391 0.14844,0.50391 0.20703,0.75391 0.0586,0.24609 0.10547,0.48047 0.14453,0.70312 h 0.082 c 0.0508,-0.30078 0.13671,-0.64844 0.26171,-1.04687 0.125,-0.39844 0.25,-0.78516 0.38282,-1.16407 l 2.03125,-6.03906 h 2.60156 l -4.41797,11.75 c -0.28906,0.74219 -0.61719,1.375 -0.98828,1.90625 -0.37109,0.52735 -0.82422,0.92969 -1.35938,1.21094 -0.53515,0.28125 -1.1914,0.42187 -1.97265,0.42187 -0.32813,0 -0.60938,-0.0195 -0.85156,-0.0508 -0.24219,-0.0312 -0.44532,-0.0703 -0.61719,-0.10937 v -1.95313 c 0.14453,0.0274 0.3164,0.0508 0.51953,0.0781 0.20312,0.0273 0.41406,0.0391 0.63672,0.0391 0.40234,0 0.74219,-0.082 1.02344,-0.24609 0.28125,-0.16016 0.51953,-0.37891 0.71484,-0.65235 0.19531,-0.27343 0.35937,-0.58593 0.48828,-0.9375 l 0.35156,-0.90234 -4.24218,-10.55469"
         id="path19" /><path
         style="fill:#00008a;fill-opacity:1;fill-rule:nonzero;stroke:none"
         d="m 185.71094,798.19141 c 0,0.73046 0.0898,1.36718 0.26562,1.90625 0.17578,0.54296 0.44922,0.95312 0.82031,1.24218 0.375,0.28516 0.85157,0.42969 1.4375,0.42969 0.58594,0 1.06641,-0.14453 1.4375,-0.42969 0.3711,-0.28906 0.64063,-0.69922 0.8125,-1.24218 0.16797,-0.53907 0.25391,-1.17579 0.25391,-1.90625 0,-0.75391 -0.0898,-1.39454 -0.26562,-1.91407 -0.17579,-0.52343 -0.44532,-0.92187 -0.8125,-1.20312 -0.36329,-0.28125 -0.84375,-0.42188 -1.44532,-0.42188 -0.87109,0 -1.50781,0.3086 -1.90625,0.92969 -0.39843,0.61719 -0.59765,1.48828 -0.59765,2.60938 z m 7.5664,0 c 0,0.875 -0.11718,1.65234 -0.35156,2.33593 -0.23437,0.6836 -0.57031,1.26563 -1.00391,1.74219 -0.4375,0.47266 -0.97265,0.83203 -1.60546,1.07422 -0.63282,0.24219 -1.33985,0.35937 -2.1211,0.35937 -0.73047,0 -1.39844,-0.11718 -2.01172,-0.35937 -0.61328,-0.24219 -1.14062,-0.60156 -1.58593,-1.07422 -0.44141,-0.47656 -0.78907,-1.05859 -1.04688,-1.74219 -0.25391,-0.68359 -0.37891,-1.46093 -0.37891,-2.33593 0,-1.1875 0.20704,-2.1836 0.61719,-2.99219 0.41016,-0.8086 0.99219,-1.42188 1.7461,-1.84766 0.75781,-0.42187 1.66406,-0.63281 2.71875,-0.63281 0.99218,0 1.85937,0.21094 2.60937,0.63281 0.75,0.42578 1.33984,1.03906 1.76953,1.84766 0.42969,0.80859 0.64453,1.80469 0.64453,2.99219"
         id="path20" /><path
         style="fill:#00008a;fill-opacity:1;fill-rule:nonzero;stroke:none"
         d="m 200.85937,794.76953 h -2.5625 v 8.73828 h -2.46093 v -8.73828 h -1.70313 v -1.17187 l 1.70313,-0.70313 v -0.72266 c 0,-0.91406 0.14062,-1.6289 0.42578,-2.15234 0.28906,-0.51953 0.70703,-0.89453 1.2539,-1.125 0.54688,-0.22656 1.19141,-0.33984 1.9336,-0.33984 0.52344,0 0.99219,0.043 1.41015,0.125 0.41407,0.0859 0.76172,0.17968 1.03516,0.28515 l -0.625,1.83594 c -0.22266,-0.0625 -0.46875,-0.125 -0.73437,-0.18359 -0.26563,-0.0586 -0.5586,-0.0899 -0.8711,-0.0899 -0.46875,0 -0.8125,0.15235 -1.03515,0.44922 -0.22266,0.30078 -0.33204,0.71875 -0.33204,1.25391 v 0.68359 h 2.5625 v 1.85547"
         id="path21" /><path
         style="fill:#00008a;fill-opacity:1;fill-rule:nonzero;stroke:none"
         d="m 135.23437,813.625 c 1.19922,0 2.12891,0.30859 2.79688,0.91797 0.66406,0.61328 0.99609,1.60547 0.99609,2.97265 v 6.90235 h -2.46484 v -6.39453 c 0,-0.8086 -0.16016,-1.41016 -0.47656,-1.8086 -0.32032,-0.39453 -0.8125,-0.59375 -1.47657,-0.59375 -0.99218,0 -1.66796,0.3125 -2.03515,0.9375 -0.36328,0.625 -0.54688,1.52344 -0.54688,2.69922 v 5.16016 h -2.48437 v -10.59766 h 1.91797 l 0.35156,1.42969 h 0.11719 c 0.23437,-0.36719 0.51953,-0.66797 0.85937,-0.91016 0.33985,-0.24218 0.71485,-0.42187 1.125,-0.53906 0.41016,-0.11719 0.85156,-0.17578 1.32031,-0.17578"
         id="path22" /><path
         style="fill:#00008a;fill-opacity:1;fill-rule:nonzero;stroke:none"
         d="m 101.02344,815.46875 c -0.67969,0 -1.222659,0.21484 -1.632815,0.64844 -0.410156,0.42968 -0.648437,1.04687 -0.714844,1.85547 h 4.515629 c 0,-0.4961 -0.0781,-0.92969 -0.23438,-1.30079 -0.15625,-0.37109 -0.39453,-0.66406 -0.71094,-0.8789 -0.32031,-0.21485 -0.72656,-0.32422 -1.22265,-0.32422 z m -0.0391,-1.83594 c 0.94921,0 1.77343,0.1875 2.46093,0.56641 0.69141,0.3789 1.22266,0.92578 1.59375,1.64453 0.3711,0.71484 0.5586,1.58203 0.5586,2.59766 v 1.26953 h -6.980472 c 0.02734,0.95312 0.292968,1.6914 0.800781,2.21093 0.511719,0.51954 1.234371,0.78125 2.171871,0.78125 0.66407,0 1.26563,-0.0625 1.79688,-0.19531 0.53516,-0.1289 1.08203,-0.32031 1.64453,-0.5664 v 1.95312 c -0.52344,0.25 -1.0625,0.43359 -1.625,0.55078 -0.55859,0.11719 -1.23828,0.17578 -2.03125,0.17578 -1.03125,0 -1.945312,-0.19922 -2.746094,-0.59765 -0.800781,-0.39844 -1.429687,-1 -1.878906,-1.8086 -0.449219,-0.80859 -0.671875,-1.8125 -0.671875,-3.01172 0,-1.21093 0.203125,-2.23046 0.613281,-3.05859 0.410156,-0.82812 0.984375,-1.45312 1.722656,-1.875 0.734376,-0.42578 1.593748,-0.63672 2.570318,-0.63672"
         id="path23" /><path
         style="fill:#00008a;fill-opacity:1;fill-rule:nonzero;stroke:none"
         d="m 112.35156,824.62109 c -0.99218,0 -1.86718,-0.19531 -2.62109,-0.57812 -0.75781,-0.38281 -1.34766,-0.97656 -1.76953,-1.77735 -0.42188,-0.80468 -0.63672,-1.82812 -0.63672,-3.08203 0,-1.30078 0.23047,-2.35937 0.6875,-3.17578 0.45312,-0.8125 1.07422,-1.41406 1.85547,-1.79687 0.78125,-0.38672 1.66797,-0.57813 2.66015,-0.57813 0.58594,0 1.14454,0.0586 1.67969,0.17578 0.53516,0.11719 0.99219,0.27344 1.36719,0.46875 l -0.74219,1.9375 c -0.35156,-0.14453 -0.73047,-0.27343 -1.13281,-0.38281 -0.40625,-0.10937 -0.80078,-0.16797 -1.19141,-0.16797 -0.57422,0 -1.05859,0.13281 -1.45703,0.39453 -0.39844,0.25782 -0.69531,0.64844 -0.89062,1.16016 -0.19532,0.51562 -0.29297,1.16406 -0.29297,1.94531 0,0.7461 0.10156,1.3711 0.30469,1.87891 0.19921,0.50781 0.49218,0.89062 0.8789,1.14453 0.38281,0.25391 0.84766,0.37891 1.39844,0.37891 0.55859,0 1.07812,-0.0664 1.55469,-0.20313 0.47265,-0.13672 0.92187,-0.31641 1.33593,-0.53906 v 2.07031 c -0.39062,0.22266 -0.82421,0.39844 -1.30078,0.53125 -0.47265,0.12891 -1.03906,0.19531 -1.6875,0.19531"
         id="path24" /><path
         style="fill:#00008a;fill-opacity:1;fill-rule:nonzero;stroke:none"
         d="m 120.07813,813.06641 c 0,0.45703 -0.0156,0.87109 -0.0391,1.24218 -0.0273,0.3711 -0.0547,0.67188 -0.0781,0.90625 h 0.13672 c 0.21875,-0.36328 0.49218,-0.66015 0.82031,-0.88672 0.32422,-0.23046 0.6875,-0.40234 1.08594,-0.51953 0.39453,-0.11718 0.80859,-0.17578 1.23828,-0.17578 0.79687,0 1.48047,0.13672 2.05469,0.41016 0.57421,0.27344 1.01171,0.69531 1.32031,1.26172 0.30469,0.5664 0.45703,1.30468 0.45703,2.21875 v 6.90234 h -2.48047 v -6.39453 c 0,-0.80859 -0.15625,-1.41016 -0.46875,-1.80859 -0.3125,-0.39844 -0.80469,-0.59766 -1.46875,-0.59766 -0.65234,0 -1.16406,0.14453 -1.54297,0.43359 -0.3789,0.28516 -0.64453,0.69532 -0.80078,1.23047 -0.15625,0.53516 -0.23437,1.19141 -0.23437,1.97266 v 5.16406 h -2.48438 v -14.85937 h 2.48438 v 3.5"
         id="path25" /><path
         style="fill:#00008a;fill-opacity:1;fill-rule:nonzero;stroke:none"
         d="m 92.3125,824.42578 h -2.519531 v -11.82812 h -4.335938 v -2.13282 h 11.1875 v 2.13282 H 92.3125 v 11.82812"
         id="path26" /><path
         style="fill:#00008a;fill-opacity:1;fill-rule:nonzero;stroke:none"
         d="m 143.59375,819.10547 c 0,0.73047 0.0898,1.36719 0.26562,1.90625 0.17188,0.54297 0.44922,0.95312 0.82032,1.24219 0.37109,0.28515 0.84765,0.42968 1.43359,0.42968 0.58984,0 1.06641,-0.14453 1.4375,-0.42968 0.375,-0.28907 0.64453,-0.69922 0.8125,-1.24219 0.16797,-0.53906 0.25391,-1.17578 0.25391,-1.90625 0,-0.75391 -0.0898,-1.39453 -0.26172,-1.91406 -0.17578,-0.52344 -0.44922,-0.92188 -0.8125,-1.20313 -0.36328,-0.28125 -0.84766,-0.42187 -1.44531,-0.42187 -0.875,0 -1.51172,0.30859 -1.90625,0.92968 -0.39844,0.61719 -0.59766,1.48828 -0.59766,2.60938 z m 7.56641,0 c 0,0.875 -0.11719,1.65234 -0.35157,2.33594 -0.23828,0.68359 -0.57031,1.26562 -1.00781,1.74218 -0.4375,0.47266 -0.97266,0.83203 -1.60547,1.07422 -0.6289,0.24219 -1.33594,0.35938 -2.12109,0.35938 -0.72656,0 -1.39844,-0.11719 -2.01172,-0.35938 -0.61328,-0.24219 -1.14063,-0.60156 -1.58203,-1.07422 -0.44531,-0.47656 -0.79297,-1.05859 -1.04688,-1.74218 -0.2539,-0.6836 -0.38281,-1.46094 -0.38281,-2.33594 0,-1.1875 0.20703,-2.1836 0.61719,-2.99219 0.41015,-0.80859 0.99219,-1.42187 1.75,-1.84766 0.7539,-0.42187 1.66015,-0.63281 2.71875,-0.63281 0.98828,0 1.85937,0.21094 2.60937,0.63281 0.7461,0.42579 1.33985,1.03907 1.76953,1.84766 0.42969,0.80859 0.64454,1.80469 0.64454,2.99219"
         id="path27-7" /><path
         style="fill:#00008a;fill-opacity:1;fill-rule:nonzero;stroke:none"
         d="m 160.21094,819.10547 c 0,0.73047 0.0898,1.36719 0.26562,1.90625 0.17578,0.54297 0.44922,0.95312 0.82031,1.24219 0.3711,0.28515 0.84766,0.42968 1.4375,0.42968 0.58594,0 1.0625,-0.14453 1.4336,-0.42968 0.37109,-0.28907 0.64453,-0.69922 0.8125,-1.24219 0.16797,-0.53906 0.2539,-1.17578 0.2539,-1.90625 0,-0.75391 -0.0859,-1.39453 -0.26171,-1.91406 -0.17579,-0.52344 -0.44922,-0.92188 -0.8125,-1.20313 -0.36329,-0.28125 -0.84766,-0.42187 -1.44532,-0.42187 -0.875,0 -1.51172,0.30859 -1.90625,0.92968 -0.39843,0.61719 -0.59765,1.48828 -0.59765,2.60938 z m 7.5664,0 c 0,0.875 -0.11718,1.65234 -0.35156,2.33594 -0.23437,0.68359 -0.57031,1.26562 -1.00781,1.74218 -0.4375,0.47266 -0.97266,0.83203 -1.60156,1.07422 -0.63282,0.24219 -1.33985,0.35938 -2.1211,0.35938 -0.73047,0 -1.40234,-0.11719 -2.01562,-0.35938 -0.61328,-0.24219 -1.14063,-0.60156 -1.58203,-1.07422 -0.44532,-0.47656 -0.79297,-1.05859 -1.04688,-1.74218 -0.25391,-0.6836 -0.38281,-1.46094 -0.38281,-2.33594 0,-1.1875 0.20703,-2.1836 0.61719,-2.99219 0.41015,-0.80859 0.99218,-1.42187 1.75,-1.84766 0.7539,-0.42187 1.66015,-0.63281 2.71875,-0.63281 0.98828,0 1.85937,0.21094 2.60937,0.63281 0.75,0.42579 1.33594,1.03907 1.76953,1.84766 0.42969,0.80859 0.64453,1.80469 0.64453,2.99219"
         id="path28-6" /><path
         style="fill:#00008a;fill-opacity:1;fill-rule:nonzero;stroke:none"
         d="m 174.35937,815.625 c -0.49609,0 -0.91796,0.13672 -1.26171,0.41016 -0.34375,0.27343 -0.60547,0.67578 -0.78125,1.20312 -0.17579,0.52734 -0.26563,1.17188 -0.26563,1.92578 0,1.16016 0.19922,2.03125 0.59766,2.60938 0.39843,0.58203 0.98047,0.87109 1.75,0.87109 0.4414,0 0.82031,-0.0625 1.13281,-0.1875 0.3125,-0.12109 0.57031,-0.3125 0.77344,-0.56641 0.19922,-0.2539 0.35156,-0.57421 0.44922,-0.96484 0.0977,-0.39453 0.14453,-0.85547 0.14453,-1.39062 v -0.42969 c 0,-0.79297 -0.0859,-1.44922 -0.26172,-1.96485 -0.17578,-0.51562 -0.44922,-0.89453 -0.82031,-1.14453 -0.3711,-0.24609 -0.85938,-0.37109 -1.45704,-0.37109 z m -0.68359,-1.99219 c 0.71484,0 1.33203,0.13281 1.84766,0.39844 0.51172,0.26953 0.94531,0.64844 1.29687,1.14453 h 0.0977 l 0.2539,-1.34766 h 2.07422 v 10.71094 c 0,1.00391 -0.1875,1.84375 -0.55859,2.52344 -0.37109,0.67578 -0.92969,1.1875 -1.67969,1.53516 -0.75,0.34375 -1.70312,0.51953 -2.86328,0.51953 -0.79687,0 -1.51562,-0.0547 -2.16016,-0.16016 -0.64453,-0.10156 -1.24218,-0.26562 -1.78906,-0.48828 v -2.16797 c 0.5586,0.26172 1.15625,0.46094 1.78906,0.60547 0.62891,0.14453 1.34375,0.21484 2.13672,0.21484 0.85157,0 1.5,-0.21484 1.95703,-0.64453 0.45704,-0.42969 0.6836,-1.03125 0.6836,-1.80078 v -0.3125 c 0,-0.16797 0.0117,-0.38672 0.0312,-0.65234 0.0195,-0.26953 0.0352,-0.49219 0.0469,-0.67578 h -0.0781 c -0.32422,0.49609 -0.74219,0.88281 -1.25,1.16406 -0.50781,0.28125 -1.12891,0.41797 -1.85938,0.41797 -1.27343,0 -2.28515,-0.47266 -3.02734,-1.42578 -0.74219,-0.94922 -1.11328,-2.30079 -1.11328,-4.04688 0,-1.73437 0.37109,-3.08594 1.12109,-4.05469 0.75,-0.97265 1.76563,-1.45703 3.04297,-1.45703"
         id="path29-5" /><path
         style="fill:#00008a;fill-opacity:1;fill-rule:nonzero;stroke:none"
         d="m 180.84766,813.82812 h 2.63671 l 2.11329,6.03907 c 0.0898,0.25 0.17578,0.5 0.2539,0.7539 0.0781,0.25391 0.14453,0.50391 0.20313,0.75391 0.0586,0.24609 0.10937,0.48047 0.14843,0.70312 h 0.0781 c 0.0508,-0.30078 0.14062,-0.64843 0.26562,-1.04687 0.1211,-0.39844 0.25,-0.78516 0.37891,-1.16406 l 2.03516,-6.03907 h 2.59765 l -4.41797,11.75 c -0.28515,0.74219 -0.61328,1.375 -0.98828,1.90625 -0.37109,0.52735 -0.82422,0.92969 -1.35547,1.21094 -0.53515,0.28125 -1.19531,0.42188 -1.97656,0.42188 -0.32422,0 -0.60937,-0.0195 -0.85156,-0.0508 -0.23828,-0.0312 -0.44531,-0.0703 -0.61328,-0.10938 v -1.95312 c 0.14062,0.0273 0.3164,0.0508 0.51562,0.0781 0.20313,0.0273 0.41407,0.0391 0.63672,0.0391 0.40235,0 0.7461,-0.082 1.02735,-0.24609 0.27734,-0.16016 0.51562,-0.37891 0.71093,-0.65234 0.19922,-0.27344 0.35938,-0.58594 0.49219,-0.9375 l 0.35156,-0.90235 -4.24218,-10.55469"
         id="path30-0" /><path
         style="fill:#00008a;fill-opacity:1;fill-rule:nonzero;stroke:none"
         d="m 155.65234,824.42187 h -2.48047 v -14.85546 h 2.48047 v 14.85546"
         id="path31-2" /></g><g
       id="g2" /></g></svg>
